OpenSansCondensed-CondensedExtraBold.ufo
<glyph name="numbersign" format="2">
  <advance width="1219"/>
  <unicode hex="0023"/>
  <note>
numbersign
</note>
  <outline>
    <contour>
      <point x="178" y="0" type="line"/>
      <point x="418" y="0" type="line"/>
      <point x="478" y="386" type="line"/>
      <point x="637" y="386" type="line"/>
      <point x="574" y="0" type="line"/>
      <point x="813" y="0" type="line"/>
      <point x="877" y="386" type="line"/>
      <point x="1125" y="386" type="line"/>
      <point x="1125" y="624" type="line"/>
      <point x="910" y="624" type="line"/>
      <point x="942" y="813" type="line"/>
      <point x="1180" y="813" type="line"/>
      <point x="1180" y="1053" type="line"/>
      <point x="980" y="1053" type="line"/>
      <point x="1044" y="1462" type="line"/>
      <point x="808" y="1462" type="line"/>
      <point x="741" y="1053" type="line"/>
      <point x="582" y="1053" type="line"/>
      <point x="645" y="1462" type="line"/>
      <point x="411" y="1462" type="line"/>
      <point x="347" y="1053" type="line"/>
      <point x="99" y="1053" type="line"/>
      <point x="99" y="813" type="line"/>
      <point x="310" y="813" type="line"/>
      <point x="277" y="624" type="line"/>
      <point x="44" y="624" type="line"/>
      <point x="44" y="386" type="line"/>
      <point x="239" y="386" type="line"/>
    </contour>
    <contour>
      <point x="515" y="624" type="line"/>
      <point x="544" y="813" type="line"/>
      <point x="705" y="813" type="line"/>
      <point x="672" y="624" type="line"/>
    </contour>
  </outline>
</glyph>
<glyph name="parenright" format="2">
  <advance width="709"/>
  <unicode hex="0029"/>
  <note>
parenright
</note>
  <outline>
    <contour>
      <point x="44" y="-324" type="curve"/>
      <point x="346" y="-324" type="line"/>
      <point x="542" y="-99"/>
      <point x="648" y="206"/>
      <point x="648" y="561" type="curve" smooth="yes"/>
      <point x="648" y="916"/>
      <point x="544" y="1226"/>
      <point x="346" y="1462" type="curve"/>
      <point x="42" y="1462" type="line"/>
      <point x="234" y="1209"/>
      <point x="332" y="891"/>
      <point x="332" y="563" type="curve" smooth="yes"/>
      <point x="332" y="230"/>
      <point x="228" y="-76"/>
    </contour>
  </outline>
</glyph>
<glyph name="three" format="2">
  <advance width="1004"/>
  <unicode hex="0033"/>
  <outline>
    <contour>
      <point x="402" y="-20" type="curve" smooth="yes"/>
      <point x="722" y="-20"/>
      <point x="918" y="158"/>
      <point x="918" y="433" type="curve" smooth="yes"/>
      <point x="918" y="633"/>
      <point x="809" y="741"/>
      <point x="616" y="767" type="curve"/>
      <point x="616" y="775" type="line"/>
      <point x="783" y="819"/>
      <point x="886" y="946"/>
      <point x="886" y="1130" type="curve" smooth="yes"/>
      <point x="886" y="1353"/>
      <point x="730" y="1483"/>
      <point x="460" y="1483" type="curve" smooth="yes"/>
      <point x="295" y="1483"/>
      <point x="156" y="1429"/>
      <point x="57" y="1329" type="curve"/>
      <point x="208" y="1099" type="line"/>
      <point x="270" y="1154"/>
      <point x="349" y="1189"/>
      <point x="416" y="1189" type="curve" smooth="yes"/>
      <point x="499" y="1189"/>
      <point x="545" y="1147"/>
      <point x="545" y="1052" type="curve" smooth="yes"/>
      <point x="545" y="924"/>
      <point x="470" y="874"/>
      <point x="318" y="874" type="curve" smooth="yes"/>
      <point x="239" y="874" type="line"/>
      <point x="239" y="622" type="line"/>
      <point x="325" y="622" type="line" smooth="yes"/>
      <point x="382" y="622"/>
      <point x="429" y="616"/>
      <point x="467" y="602" type="curve" smooth="yes"/>
      <point x="539" y="577"/>
      <point x="575" y="526"/>
      <point x="575" y="444" type="curve" smooth="yes"/>
      <point x="575" y="309"/>
      <point x="503" y="267"/>
      <point x="351" y="267" type="curve" smooth="yes"/>
      <point x="258" y="267"/>
      <point x="143" y="303"/>
      <point x="54" y="358" type="curve"/>
      <point x="54" y="57" type="line"/>
      <point x="148" y="6"/>
      <point x="265" y="-20"/>
    </contour>
  </outline>
</glyph>
<glyph name="colon" format="2">
  <advance width="609"/>
  <unicode hex="003A"/>
  <note>
colon
</note>
  <outline>
    <contour>
      <point x="304" y="781" type="curve" smooth="yes"/>
      <point x="436" y="781"/>
      <point x="508" y="854"/>
      <point x="508" y="969" type="curve" smooth="yes"/>
      <point x="508" y="1089"/>
      <point x="437" y="1159"/>
      <point x="304" y="1159" type="curve" smooth="yes"/>
      <point x="171" y="1159"/>
      <point x="101" y="1088"/>
      <point x="101" y="969" type="curve" smooth="yes"/>
      <point x="101" y="852"/>
      <point x="172" y="781"/>
    </contour>
    <contour>
      <point x="304" y="-32" type="curve" smooth="yes"/>
      <point x="436" y="-32"/>
      <point x="508" y="42"/>
      <point x="508" y="157" type="curve" smooth="yes"/>
      <point x="508" y="274"/>
      <point x="441" y="345"/>
      <point x="304" y="345" type="curve" smooth="yes"/>
      <point x="171" y="345"/>
      <point x="101" y="275"/>
      <point x="101" y="157" type="curve" smooth="yes"/>
      <point x="101" y="40"/>
      <point x="172" y="-32"/>
    </contour>
  </outline>
</glyph>
<glyph name="less" format="2">
  <advance width="960"/>
  <unicode hex="003C"/>
  <note>
less
</note>
  <outline>
    <contour>
      <point x="833" y="176" type="line"/>
      <point x="833" y="453" type="line"/>
      <point x="394" y="723" type="line"/>
      <point x="833" y="990" type="line"/>
      <point x="833" y="1268" type="line"/>
      <point x="126" y="820" type="line"/>
      <point x="126" y="626" type="line"/>
    </contour>
  </outline>
</glyph>
<glyph name="A" format="2">
  <advance width="1214"/>
  <unicode hex="0041"/>
  <anchor x="607" y="0" name="bottom"/>
  <anchor x="1104" y="10" name="ogonek"/>
  <anchor x="607" y="1462" name="top"/>
  <outline>
    <contour>
      <point x="1214" y="0" type="line"/>
      <point x="850" y="1471" type="line"/>
      <point x="367" y="1471" type="line"/>
      <point x="0" y="0" type="line"/>
      <point x="344" y="0" type="line"/>
      <point x="411" y="301" type="line"/>
      <point x="803" y="301" type="line"/>
      <point x="868" y="0" type="line"/>
    </contour>
    <contour>
      <point x="480" y="601" type="line"/>
      <point x="536" y="850"/>
      <point x="563" y="975"/>
      <point x="575" y="1044" type="curve" smooth="yes"/>
      <point x="578" y="1059"/>
      <point x="586" y="1102"/>
      <point x="609" y="1239" type="curve"/>
      <point x="612" y="1211"/>
      <point x="676" y="887"/>
      <point x="683" y="854" type="curve" smooth="yes"/>
      <point x="739" y="601" type="line"/>
    </contour>
  </outline>
</glyph>
<glyph name="C" format="2">
  <advance width="986"/>
  <unicode hex="0043"/>
  <anchor x="564" y="0" name="bottom"/>
  <anchor x="586" y="1462" name="top"/>
  <outline>
    <contour>
      <point x="609" y="-20" type="curve" smooth="yes"/>
      <point x="719" y="-20"/>
      <point x="830" y="6"/>
      <point x="909" y="62" type="curve"/>
      <point x="909" y="369" type="line"/>
      <point x="824" y="318"/>
      <point x="733" y="281"/>
      <point x="648" y="281" type="curve" smooth="yes"/>
      <point x="577" y="281"/>
      <point x="527" y="307"/>
      <point x="493" y="357" type="curve" smooth="yes"/>
      <point x="445" y="428"/>
      <point x="425" y="554"/>
      <point x="425" y="711" type="curve" smooth="yes"/>
      <point x="425" y="1021"/>
      <point x="503" y="1183"/>
      <point x="635" y="1183" type="curve" smooth="yes"/>
      <point x="720" y="1183"/>
      <point x="807" y="1117"/>
      <point x="845" y="1088" type="curve"/>
      <point x="954" y="1368" type="line"/>
      <point x="822" y="1454"/>
      <point x="722" y="1482"/>
      <point x="613" y="1482" type="curve" smooth="yes"/>
      <point x="449" y="1482"/>
      <point x="319" y="1419"/>
      <point x="227" y="1301" type="curve" smooth="yes"/>
      <point x="127" y="1171"/>
      <point x="73" y="976"/>
      <point x="73" y="725" type="curve" smooth="yes"/>
      <point x="73" y="299"/>
      <point x="222" y="-20"/>
    </contour>
  </outline>
</glyph>
<glyph name="D" format="2">
  <advance width="1206"/>
  <unicode hex="0044"/>
  <anchor x="604" y="0" name="bottom"/>
  <anchor x="604" y="731" name="center"/>
  <anchor x="604" y="1462" name="top"/>
  <outline>
    <contour>
      <point x="1134" y="745" type="curve" smooth="yes"/>
      <point x="1134" y="1190"/>
      <point x="917" y="1462"/>
      <point x="561" y="1462" type="curve" smooth="yes"/>
      <point x="115" y="1462" type="line"/>
      <point x="115" y="0" type="line"/>
      <point x="516" y="0" type="line" smooth="yes"/>
      <point x="911" y="0"/>
      <point x="1134" y="268"/>
    </contour>
    <contour>
      <point x="779" y="736" type="curve" smooth="yes"/>
      <point x="779" y="442"/>
      <point x="697" y="301"/>
      <point x="521" y="301" type="curve" smooth="yes"/>
      <point x="462" y="301" type="line"/>
      <point x="462" y="1165" type="line"/>
      <point x="548" y="1165" type="line" smooth="yes"/>
      <point x="704" y="1165"/>
      <point x="779" y="1027"/>
    </contour>
  </outline>
</glyph>
<glyph name="M" format="2">
  <advance width="1694"/>
  <unicode hex="004D"/>
  <anchor x="847" y="0" name="bottom"/>
  <anchor x="847" y="1462" name="top"/>
  <outline>
    <contour>
      <point x="115" y="0" type="line"/>
      <point x="436" y="0" type="line"/>
      <point x="436" y="946" type="line" smooth="yes"/>
      <point x="436" y="1043"/>
      <point x="428" y="1131"/>
      <point x="413" y="1208" type="curve"/>
      <point x="425" y="1208" type="line"/>
      <point x="656" y="0" type="line"/>
      <point x="1038" y="0" type="line"/>
      <point x="1269" y="1208" type="line"/>
      <point x="1281" y="1208" type="line"/>
      <point x="1266" y="1131"/>
      <point x="1258" y="1043"/>
      <point x="1258" y="946" type="curve" smooth="yes"/>
      <point x="1258" y="0" type="line"/>
      <point x="1579" y="0" type="line"/>
      <point x="1579" y="1462" type="line"/>
      <point x="1043" y="1462" type="line"/>
      <point x="905" y="663" type="line" smooth="yes"/>
      <point x="891" y="583"/>
      <point x="873" y="499"/>
      <point x="851" y="408" type="curve"/>
      <point x="843" y="408" type="line"/>
      <point x="821" y="499"/>
      <point x="803" y="583"/>
      <point x="789" y="663" type="curve" smooth="yes"/>
      <point x="651" y="1462" type="line"/>
      <point x="115" y="1462" type="line"/>
    </contour>
  </outline>
</glyph>
<glyph name="O" format="2">
  <advance width="1285"/>
  <unicode hex="004F"/>
  <anchor x="643" y="0" name="bottom"/>
  <anchor x="643" y="731" name="center"/>
  <anchor x="1157" y="10" name="ogonek"/>
  <anchor x="643" y="1462" name="top"/>
  <anchor x="160" y="1462" name="topleft"/>
  <anchor x="1265" y="1462" name="topright"/>
  <outline>
    <contour>
      <point x="1212" y="733" type="curve" smooth="yes"/>
      <point x="1212" y="1218"/>
      <point x="1010" y="1486"/>
      <point x="645" y="1486" type="curve" smooth="yes"/>
      <point x="280" y="1486"/>
      <point x="73" y="1210"/>
      <point x="73" y="735" type="curve" smooth="yes"/>
      <point x="73" y="244"/>
      <point x="277" y="-20"/>
      <point x="643" y="-20" type="curve" smooth="yes"/>
      <point x="1008" y="-20"/>
      <point x="1212" y="249"/>
    </contour>
    <contour>
      <point x="425" y="733" type="curve" smooth="yes"/>
      <point x="425" y="1029"/>
      <point x="502" y="1183"/>
      <point x="645" y="1183" type="curve" smooth="yes"/>
      <point x="789" y="1183"/>
      <point x="859" y="1035"/>
      <point x="859" y="733" type="curve" smooth="yes"/>
      <point x="859" y="434"/>
      <point x="788" y="284"/>
      <point x="643" y="284" type="curve" smooth="yes"/>
      <point x="500" y="284"/>
      <point x="425" y="443"/>
    </contour>
  </outline>
</glyph>
<glyph name="R" format="2">
  <advance width="1090"/>
  <unicode hex="0052"/>
  <anchor x="545" y="0" name="bottom"/>
  <anchor x="545" y="1462" name="top"/>
  <outline>
    <contour>
      <point x="115" y="0" type="line"/>
      <point x="462" y="0" type="line"/>
      <point x="462" y="539" type="line"/>
      <point x="521" y="539" type="line"/>
      <point x="734" y="0" type="line"/>
      <point x="1102" y="0" type="line"/>
      <point x="825" y="632" type="line"/>
      <point x="931" y="708"/>
      <point x="992" y="837"/>
      <point x="992" y="1014" type="curve" smooth="yes"/>
      <point x="992" y="1318"/>
      <point x="847" y="1462"/>
      <point x="538" y="1462" type="curve" smooth="yes"/>
      <point x="115" y="1462" type="line"/>
    </contour>
    <contour>
      <point x="462" y="835" type="line"/>
      <point x="462" y="1167" type="line"/>
      <point x="512" y="1167" type="line" smooth="yes"/>
      <point x="599" y="1167"/>
      <point x="642" y="1123"/>
      <point x="642" y="1005" type="curve" smooth="yes"/>
      <point x="642" y="892"/>
      <point x="610" y="835"/>
      <point x="504" y="835" type="curve" smooth="yes"/>
    </contour>
  </outline>
</glyph>
<glyph name="Z" format="2">
  <advance width="977"/>
  <unicode hex="005A"/>
  <anchor x="490" y="0" name="bottom"/>
  <anchor x="490" y="1462" name="top"/>
  <outline>
    <contour>
      <point x="934" y="300" type="line"/>
      <point x="434" y="300" type="line"/>
      <point x="918" y="1229" type="line"/>
      <point x="918" y="1462" type="line"/>
      <point x="54" y="1462" type="line"/>
      <point x="54" y="1164" type="line"/>
      <point x="523" y="1164" type="line"/>
      <point x="37" y="233" type="line"/>
      <point x="37" y="0" type="line"/>
      <point x="934" y="0" type="line"/>
    </contour>
  </outline>
</glyph>
<glyph name="underscore" format="2">
  <advance width="634"/>
  <unicode hex="005F"/>
  <note>
underscore
</note>
  <outline>
    <contour>
      <point x="-4" y="-349" type="line"/>
      <point x="638" y="-349" type="line"/>
      <point x="638" y="-184" type="line"/>
      <point x="-4" y="-184" type="line"/>
    </contour>
  </outline>
</glyph>
<glyph name="g" format="2">
  <advance width="1020"/>
  <unicode hex="0067"/>
  <anchor x="510" y="0" name="bottom"/>
  <anchor x="515" y="1127" name="top"/>
  <outline>
    <contour>
      <point x="647" y="1123" type="line"/>
      <point x="616" y="1133"/>
      <point x="533" y="1148"/>
      <point x="488" y="1148" type="curve" smooth="yes"/>
      <point x="220" y="1148"/>
      <point x="76" y="1010"/>
      <point x="76" y="761" type="curve" smooth="yes"/>
      <point x="76" y="625"/>
      <point x="133" y="497"/>
      <point x="217" y="439" type="curve"/>
      <point x="150" y="379"/>
      <point x="107" y="337"/>
      <point x="107" y="247" type="curve" smooth="yes"/>
      <point x="107" y="170"/>
      <point x="157" y="108"/>
      <point x="225" y="83" type="curve"/>
      <point x="95" y="46"/>
      <point x="10" y="-54"/>
      <point x="10" y="-173" type="curve" smooth="yes"/>
      <point x="10" y="-377"/>
      <point x="161" y="-492"/>
      <point x="430" y="-492" type="curve" smooth="yes"/>
      <point x="794" y="-492"/>
      <point x="982" y="-339"/>
      <point x="982" y="-59" type="curve" smooth="yes"/>
      <point x="982" y="152"/>
      <point x="878" y="254"/>
      <point x="692" y="254" type="curve" smooth="yes"/>
      <point x="490" y="254" type="line" smooth="yes"/>
      <point x="409" y="254"/>
      <point x="374" y="271"/>
      <point x="374" y="313" type="curve" smooth="yes"/>
      <point x="374" y="345"/>
      <point x="393" y="364"/>
      <point x="407" y="377" type="curve"/>
      <point x="423" y="371"/>
      <point x="452" y="367"/>
      <point x="492" y="367" type="curve" smooth="yes"/>
      <point x="753" y="367"/>
      <point x="901" y="506"/>
      <point x="901" y="754" type="curve" smooth="yes"/>
      <point x="901" y="812"/>
      <point x="894" y="849"/>
      <point x="876" y="894" type="curve"/>
      <point x="1001" y="929" type="line"/>
      <point x="1001" y="1123" type="line"/>
    </contour>
    <contour>
      <point x="316" y="-148" type="curve" smooth="yes"/>
      <point x="316" y="-80"/>
      <point x="342" y="-40"/>
      <point x="389" y="-40" type="curve" smooth="yes"/>
      <point x="543" y="-40" type="line" smooth="yes"/>
      <point x="655" y="-40"/>
      <point x="673" y="-53"/>
      <point x="673" y="-116" type="curve" smooth="yes"/>
      <point x="673" y="-200"/>
      <point x="606" y="-250"/>
      <point x="453" y="-250" type="curve" smooth="yes"/>
      <point x="368" y="-250"/>
      <point x="316" y="-215"/>
    </contour>
    <contour>
      <point x="408" y="759" type="curve" smooth="yes"/>
      <point x="408" y="873"/>
      <point x="434" y="926"/>
      <point x="490" y="926" type="curve" smooth="yes"/>
      <point x="544" y="926"/>
      <point x="570" y="874"/>
      <point x="570" y="757" type="curve" smooth="yes"/>
      <point x="570" y="647"/>
      <point x="543" y="592"/>
      <point x="490" y="592" type="curve" smooth="yes"/>
      <point x="431" y="592"/>
      <point x="408" y="647"/>
    </contour>
  </outline>
</glyph>
<glyph name="o" format="2">
  <advance width="1082"/>
  <unicode hex="006F"/>
  <anchor x="540" y="0" name="bottom"/>
  <anchor x="540" y="563" name="center"/>
  <anchor x="973" y="10" name="ogonek"/>
  <anchor x="540" y="1127" name="top"/>
  <anchor x="1062" y="1127" name="topright"/>
  <outline>
    <contour>
      <point x="545" y="-20" type="curve" smooth="yes"/>
      <point x="828" y="-20"/>
      <point x="1015" y="201"/>
      <point x="1015" y="561" type="curve" smooth="yes"/>
      <point x="1015" y="917"/>
      <point x="832" y="1148"/>
      <point x="541" y="1148" type="curve" smooth="yes"/>
      <point x="252" y="1148"/>
      <point x="65" y="921"/>
      <point x="65" y="566" type="curve" smooth="yes"/>
      <point x="65" y="241"/>
      <point x="237" y="-20"/>
    </contour>
    <contour>
      <point x="541" y="265" type="curve" smooth="yes"/>
      <point x="501" y="265"/>
      <point x="466" y="286"/>
      <point x="445" y="334" type="curve" smooth="yes"/>
      <point x="426" y="377"/>
      <point x="412" y="456"/>
      <point x="412" y="568" type="curve" smooth="yes"/>
      <point x="412" y="680"/>
      <point x="426" y="755"/>
      <point x="447" y="798" type="curve" smooth="yes"/>
      <point x="469" y="843"/>
      <point x="503" y="860"/>
      <point x="542" y="860" type="curve" smooth="yes"/>
      <point x="594" y="860"/>
      <point x="626" y="830"/>
      <point x="645" y="778" type="curve" smooth="yes"/>
      <point x="667" y="718"/>
      <point x="670" y="628"/>
      <point x="670" y="572" type="curve" smooth="yes"/>
      <point x="670" y="476"/>
      <point x="661" y="404"/>
      <point x="643" y="353" type="curve" smooth="yes"/>
      <point x="622" y="294"/>
      <point x="588" y="265"/>
    </contour>
  </outline>
</glyph>
<glyph name="r" format="2">
  <advance width="746"/>
  <unicode hex="0072"/>
  <anchor x="243" y="0" name="bottom"/>
  <anchor x="373" y="1127" name="top"/>
  <outline>
    <contour>
      <point x="99" y="0" type="line"/>
      <point x="439" y="0" type="line"/>
      <point x="439" y="572" type="line" smooth="yes"/>
      <point x="439" y="628"/>
      <point x="447" y="673"/>
      <point x="460" y="708" type="curve" smooth="yes"/>
      <point x="485" y="773"/>
      <point x="545" y="812"/>
      <point x="632" y="812" type="curve" smooth="yes"/>
      <point x="673" y="812"/>
      <point x="694" y="809"/>
      <point x="711" y="804" type="curve"/>
      <point x="745" y="1133" type="line"/>
      <point x="714" y="1143"/>
      <point x="684" y="1148"/>
      <point x="645" y="1148" type="curve" smooth="yes"/>
      <point x="551" y="1148"/>
      <point x="486" y="1090"/>
      <point x="427" y="959" type="curve"/>
      <point x="418" y="959" type="line"/>
      <point x="379" y="1127" type="line"/>
      <point x="99" y="1127" type="line"/>
    </contour>
  </outline>
</glyph>
<glyph name="z" format="2">
  <advance width="812"/>
  <unicode hex="007A"/>
  <anchor x="407" y="0" name="bottom"/>
  <anchor x="407" y="1127" name="top"/>
  <outline>
    <contour>
      <point x="774" y="271" type="line"/>
      <point x="423" y="271" type="line"/>
      <point x="760" y="891" type="line"/>
      <point x="760" y="1127" type="line"/>
      <point x="55" y="1127" type="line"/>
      <point x="55" y="856" type="line"/>
      <point x="386" y="856" type="line"/>
      <point x="33" y="211" type="line"/>
      <point x="33" y="0" type="line"/>
      <point x="774" y="0" type="line"/>
    </contour>
  </outline>
</glyph>
<glyph name="sterling" format="2">
  <advance width="1004"/>
  <unicode hex="00A3"/>
  <note>
sterling
</note>
  <outline>
    <contour>
      <point x="68" y="0" type="line"/>
      <point x="974" y="0" type="line"/>
      <point x="974" y="305" type="line"/>
      <point x="435" y="305" type="line"/>
      <point x="533" y="376"/>
      <point x="570" y="459"/>
      <point x="570" y="571" type="curve" smooth="yes"/>
      <point x="570" y="637" type="line"/>
      <point x="807" y="637" type="line"/>
      <point x="807" y="891" type="line"/>
      <point x="570" y="891" type="line"/>
      <point x="570" y="1044" type="line" smooth="yes"/>
      <point x="570" y="1140"/>
      <point x="604" y="1193"/>
      <point x="661" y="1193" type="curve" smooth="yes"/>
      <point x="721" y="1193"/>
      <point x="788" y="1174"/>
      <point x="845" y="1149" type="curve"/>
      <point x="941" y="1419" type="line"/>
      <point x="850" y="1462"/>
      <point x="750" y="1483"/>
      <point x="637" y="1483" type="curve" smooth="yes"/>
      <point x="379" y="1483"/>
      <point x="230" y="1325"/>
      <point x="230" y="1051" type="curve" smooth="yes"/>
      <point x="230" y="891" type="line"/>
      <point x="77" y="891" type="line"/>
      <point x="77" y="637" type="line"/>
      <point x="230" y="637" type="line"/>
      <point x="230" y="537" type="line" smooth="yes"/>
      <point x="230" y="491"/>
      <point x="226" y="455"/>
      <point x="213" y="423" type="curve" smooth="yes"/>
      <point x="193" y="375"/>
      <point x="152" y="338"/>
      <point x="68" y="292" type="curve"/>
    </contour>
  </outline>
</glyph>
<glyph name="yen" format="2">
  <advance width="1004"/>
  <unicode hex="00A5"/>
  <note>
yen
</note>
  <outline>
    <contour>
      <point x="336" y="0" type="line"/>
      <point x="671" y="0" type="line"/>
      <point x="671" y="202" type="line"/>
      <point x="926" y="202" type="line"/>
      <point x="926" y="410" type="line"/>
      <point x="671" y="410" type="line"/>
      <point x="671" y="527" type="line"/>
      <point x="926" y="527" type="line"/>
      <point x="926" y="735" type="line"/>
      <point x="745" y="735" type="line"/>
      <point x="1041" y="1462" type="line"/>
      <point x="679" y="1462" type="line"/>
      <point x="503" y="907" type="line"/>
      <point x="326" y="1462" type="line"/>
      <point x="-37" y="1462" type="line"/>
      <point x="261" y="735" type="line"/>
      <point x="77" y="735" type="line"/>
      <point x="77" y="527" type="line"/>
      <point x="336" y="527" type="line"/>
      <point x="336" y="410" type="line"/>
      <point x="77" y="410" type="line"/>
      <point x="77" y="202" type="line"/>
      <point x="336" y="202" type="line"/>
    </contour>
  </outline>
</glyph>
<glyph name="section" format="2">
  <advance width="947"/>
  <unicode hex="00A7"/>
  <note>
section
</note>
  <outline>
    <contour>
      <point x="409" y="-92" type="curve" smooth="yes"/>
      <point x="718" y="-92"/>
      <point x="840" y="32"/>
      <point x="840" y="234" type="curve" smooth="yes"/>
      <point x="840" y="352"/>
      <point x="798" y="400"/>
      <point x="727" y="453" type="curve"/>
      <point x="815" y="522"/>
      <point x="854" y="610"/>
      <point x="854" y="721" type="curve" smooth="yes"/>
      <point x="854" y="957"/>
      <point x="676" y="1052"/>
      <point x="561" y="1110" type="curve" smooth="yes"/>
      <point x="553" y="1114"/>
      <point x="535" y="1123"/>
      <point x="504" y="1141" type="curve" smooth="yes"/>
      <point x="431" y="1184"/>
      <point x="388" y="1213"/>
      <point x="388" y="1265" type="curve" smooth="yes"/>
      <point x="388" y="1301"/>
      <point x="409" y="1333"/>
      <point x="483" y="1333" type="curve" smooth="yes"/>
      <point x="587" y="1333"/>
      <point x="729" y="1274"/>
      <point x="777" y="1253" type="curve"/>
      <point x="853" y="1484" type="line"/>
      <point x="761" y="1517"/>
      <point x="625" y="1560"/>
      <point x="478" y="1560" type="curve" smooth="yes"/>
      <point x="235" y="1560"/>
      <point x="99" y="1443"/>
      <point x="99" y="1256" type="curve" smooth="yes"/>
      <point x="99" y="1149"/>
      <point x="144" y="1046"/>
      <point x="220" y="995" type="curve"/>
      <point x="148" y="937"/>
      <point x="99" y="848"/>
      <point x="99" y="739" type="curve" smooth="yes"/>
      <point x="99" y="690"/>
      <point x="109" y="639"/>
      <point x="125" y="599" type="curve" smooth="yes"/>
      <point x="142" y="556"/>
      <point x="169" y="518"/>
      <point x="211" y="479" type="curve" smooth="yes"/>
      <point x="250" y="442"/>
      <point x="303" y="404"/>
      <point x="375" y="360" type="curve" smooth="yes"/>
      <point x="403" y="343"/>
      <point x="433" y="326"/>
      <point x="467" y="307" type="curve" smooth="yes"/>
      <point x="530" y="272"/>
      <point x="551" y="243"/>
      <point x="551" y="209" type="curve" smooth="yes"/>
      <point x="551" y="143"/>
      <point x="497" y="127"/>
      <point x="410" y="127" type="curve" smooth="yes"/>
      <point x="307" y="127"/>
      <point x="205" y="149"/>
      <point x="82" y="199" type="curve"/>
      <point x="82" y="-33" type="line"/>
      <point x="142" y="-61"/>
      <point x="255" y="-92"/>
    </contour>
    <contour>
      <point x="557" y="556" type="curve"/>
      <point x="533" y="568"/>
      <point x="530" y="570"/>
      <point x="491" y="597" type="curve" smooth="yes"/>
      <point x="392" y="666"/>
      <point x="364" y="701"/>
      <point x="364" y="764" type="curve" smooth="yes"/>
      <point x="364" y="824"/>
      <point x="388" y="869"/>
      <point x="405" y="888" type="curve"/>
      <point x="434" y="876"/>
      <point x="469" y="852"/>
      <point x="495" y="829" type="curve" smooth="yes"/>
      <point x="555" y="776"/>
      <point x="579" y="721"/>
      <point x="579" y="674" type="curve" smooth="yes"/>
      <point x="579" y="650"/>
      <point x="573" y="600"/>
    </contour>
  </outline>
</glyph>
<glyph name="twosuperior" format="2">
  <advance width="720"/>
  <unicode hex="00B2"/>
  <note>
twosuperior
</note>
  <outline>
    <contour>
      <point x="56" y="586" type="line"/>
      <point x="667" y="586" type="line"/>
      <point x="667" y="818" type="line"/>
      <point x="360" y="816" type="line"/>
      <point x="388" y="842"/>
      <point x="415" y="868"/>
      <point x="443" y="894" type="curve" smooth="yes"/>
      <point x="542" y="987"/>
      <point x="599" y="1059"/>
      <point x="621" y="1120" type="curve" smooth="yes"/>
      <point x="633" y="1153"/>
      <point x="637" y="1189"/>
      <point x="637" y="1222" type="curve" smooth="yes"/>
      <point x="637" y="1387"/>
      <point x="536" y="1483"/>
      <point x="366" y="1483" type="curve" smooth="yes"/>
      <point x="249" y="1483"/>
      <point x="143" y="1438"/>
      <point x="48" y="1347" type="curve"/>
      <point x="172" y="1175" type="line"/>
      <point x="234" y="1235"/>
      <point x="289" y="1266"/>
      <point x="334" y="1266" type="curve" smooth="yes"/>
      <point x="371" y="1266"/>
      <point x="396" y="1246"/>
      <point x="396" y="1202" type="curve" smooth="yes"/>
      <point x="396" y="1174"/>
      <point x="386" y="1139"/>
      <point x="364" y="1109" type="curve" smooth="yes"/>
      <point x="344" y="1082"/>
      <point x="292" y="1028"/>
      <point x="263" y="998" type="curve" smooth="yes"/>
      <point x="56" y="777" type="line"/>
    </contour>
  </outline>
</glyph>
<glyph name="micro" format="2">
  <advance width="1108"/>
  <unicode hex="00B5"/>
  <note>
mu
</note>
  <outline>
    <contour>
      <point x="83" y="-492" type="line"/>
      <point x="427" y="-492" type="line"/>
      <point x="427" y="-318" type="line" smooth="yes"/>
      <point x="427" y="-200"/>
      <point x="424" y="-99"/>
      <point x="418" y="-8" type="curve"/>
      <point x="416" y="-8" type="line"/>
      <point x="446" y="-17"/>
      <point x="470" y="-20"/>
      <point x="493" y="-20" type="curve" smooth="yes"/>
      <point x="578" y="-20"/>
      <point x="639" y="22"/>
      <point x="682" y="139" type="curve"/>
      <point x="701" y="139" type="line"/>
      <point x="743" y="0" type="line"/>
      <point x="1013" y="0" type="line"/>
      <point x="1013" y="1127" type="line"/>
      <point x="669" y="1127" type="line"/>
      <point x="669" y="619" type="line" smooth="yes"/>
      <point x="669" y="504"/>
      <point x="662" y="409"/>
      <point x="648" y="359" type="curve" smooth="yes"/>
      <point x="630" y="296"/>
      <point x="589" y="263"/>
      <point x="530" y="263" type="curve" smooth="yes"/>
      <point x="461" y="263"/>
      <point x="427" y="308"/>
      <point x="427" y="441" type="curve" smooth="yes"/>
      <point x="427" y="1127" type="line"/>
      <point x="83" y="1127" type="line"/>
    </contour>
  </outline>
</glyph>
<glyph name="dcroat" format="2">
  <advance width="1069"/>
  <unicode hex="0111"/>
  <note>
dcroat
</note>
  <outline>
    <contour>
      <point x="407" y="-20" type="curve" smooth="yes"/>
      <point x="510" y="-20"/>
      <point x="595" y="31"/>
      <point x="654" y="141" type="curve"/>
      <point x="667" y="141" type="line"/>
      <point x="723" y="0" type="line"/>
      <point x="972" y="0" type="line"/>
      <point x="972" y="1172" type="line"/>
      <point x="1098" y="1172" type="line"/>
      <point x="1098" y="1405" type="line"/>
      <point x="972" y="1405" type="line"/>
      <point x="972" y="1556" type="line"/>
      <point x="633" y="1556" type="line"/>
      <point x="633" y="1405" type="line"/>
      <point x="403" y="1405" type="line"/>
      <point x="403" y="1172" type="line"/>
      <point x="633" y="1172" type="line"/>
      <point x="633" y="1167" type="line" smooth="yes"/>
      <point x="633" y="1119"/>
      <point x="639" y="1013"/>
      <point x="648" y="912" type="curve"/>
      <point x="629" y="912" type="line"/>
      <point x="567" y="1032"/>
      <point x="503" y="1076"/>
      <point x="406" y="1076" type="curve" smooth="yes"/>
      <point x="192" y="1076"/>
      <point x="65" y="861"/>
      <point x="65" y="529" type="curve" smooth="yes"/>
      <point x="65" y="184"/>
      <point x="202" y="-20"/>
    </contour>
    <contour>
      <point x="528" y="266" type="curve" smooth="yes"/>
      <point x="428" y="266"/>
      <point x="412" y="385"/>
      <point x="412" y="523" type="curve" smooth="yes"/>
      <point x="412" y="698"/>
      <point x="451" y="788"/>
      <point x="526" y="788" type="curve" smooth="yes"/>
      <point x="626" y="788"/>
      <point x="629" y="680"/>
      <point x="629" y="553" type="curve" smooth="yes"/>
      <point x="629" y="525" type="line" smooth="yes"/>
      <point x="629" y="360"/>
      <point x="616" y="266"/>
    </contour>
  </outline>
</glyph>
<glyph name="hbar" format="2">
  <advance width="1110"/>
  <unicode hex="0127"/>
  <note>
hbar
</note>
  <outline>
    <contour>
      <point x="99" y="0" type="line"/>
      <point x="439" y="0" type="line"/>
      <point x="439" y="468" type="line" smooth="yes"/>
      <point x="439" y="580"/>
      <point x="448" y="662"/>
      <point x="475" y="719" type="curve" smooth="yes"/>
      <point x="497" y="766"/>
      <point x="528" y="790"/>
      <point x="571" y="790" type="curve" smooth="yes"/>
      <point x="648" y="790"/>
      <point x="682" y="711"/>
      <point x="682" y="575" type="curve" smooth="yes"/>
      <point x="682" y="0" type="line"/>
      <point x="1025" y="0" type="line"/>
      <point x="1025" y="673" type="line" smooth="yes"/>
      <point x="1025" y="936"/>
      <point x="901" y="1076"/>
      <point x="699" y="1076" type="curve" smooth="yes"/>
      <point x="584" y="1076"/>
      <point x="498" y="1031"/>
      <point x="439" y="912" type="curve"/>
      <point x="423" y="912" type="line"/>
      <point x="432" y="942"/>
      <point x="439" y="969"/>
      <point x="439" y="992" type="curve" smooth="yes"/>
      <point x="439" y="1176" type="line"/>
      <point x="678" y="1176" type="line"/>
      <point x="678" y="1407" type="line"/>
      <point x="439" y="1407" type="line"/>
      <point x="439" y="1556" type="line"/>
      <point x="99" y="1556" type="line"/>
      <point x="99" y="1407" type="line"/>
      <point x="-28" y="1407" type="line"/>
      <point x="-28" y="1176" type="line"/>
      <point x="99" y="1176" type="line"/>
    </contour>
  </outline>
</glyph>
<glyph name="Lslash" format="2">
  <advance width="930"/>
  <unicode hex="0141"/>
  <note>
Lslash
</note>
  <outline>
    <contour>
      <point x="882" y="0" type="line"/>
      <point x="882" y="300" type="line"/>
      <point x="521" y="300" type="line"/>
      <point x="521" y="729" type="line"/>
      <point x="741" y="903" type="line"/>
      <point x="589" y="1117" type="line"/>
      <point x="521" y="1055" type="line"/>
      <point x="521" y="1462" type="line"/>
      <point x="175" y="1462" type="line"/>
      <point x="175" y="797" type="line"/>
      <point x="-28" y="645" type="line"/>
      <point x="120" y="426" type="line"/>
      <point x="175" y="471" type="line"/>
      <point x="175" y="0" type="line"/>
    </contour>
  </outline>
</glyph>
<glyph name="longs" format="2">
  <advance width="638"/>
  <unicode hex="017F"/>
  <note>
longs
</note>
  <anchor x="319" y="0" name="bottom"/>
  <anchor x="319" y="1127" name="top"/>
  <outline>
    <contour>
      <point x="99" y="0" type="line"/>
      <point x="439" y="0" type="line"/>
      <point x="439" y="1208" type="line" smooth="yes"/>
      <point x="439" y="1249"/>
      <point x="446" y="1265"/>
      <point x="457" y="1282" type="curve" smooth="yes"/>
      <point x="464" y="1293"/>
      <point x="481" y="1299"/>
      <point x="493" y="1299" type="curve" smooth="yes"/>
      <point x="547" y="1299"/>
      <point x="578" y="1282"/>
      <point x="616" y="1261" type="curve"/>
      <point x="702" y="1513" type="line"/>
      <point x="631" y="1548"/>
      <point x="554" y="1567"/>
      <point x="470" y="1567" type="curve" smooth="yes"/>
      <point x="218" y="1567"/>
      <point x="99" y="1440"/>
      <point x="99" y="1210" type="curve" smooth="yes"/>
    </contour>
  </outline>
</glyph>
<glyph name="Ohorn" format="2">
  <advance width="1421"/>
  <unicode hex="01A0"/>
  <note>
Ohorn
</note>
  <anchor x="638" y="0" name="bottom"/>
  <anchor x="645" y="1462" name="top"/>
  <outline>
    <contour>
      <point x="643" y="-20" type="curve" smooth="yes"/>
      <point x="1008" y="-20"/>
      <point x="1212" y="249"/>
      <point x="1212" y="733" type="curve" smooth="yes"/>
      <point x="1212" y="862"/>
      <point x="1196" y="980"/>
      <point x="1162" y="1094" type="curve"/>
      <point x="1319" y="1168"/>
      <point x="1415" y="1301"/>
      <point x="1477" y="1537" type="curve"/>
      <point x="1464" y="1556" type="line"/>
      <point x="1099" y="1556" type="line"/>
      <point x="1096" y="1449"/>
      <point x="1079" y="1360"/>
      <point x="1057" y="1307" type="curve"/>
      <point x="955" y="1426"/>
      <point x="818" y="1486"/>
      <point x="645" y="1486" type="curve" smooth="yes"/>
      <point x="280" y="1486"/>
      <point x="73" y="1210"/>
      <point x="73" y="735" type="curve" smooth="yes"/>
      <point x="73" y="244"/>
      <point x="277" y="-20"/>
    </contour>
    <contour>
      <point x="643" y="284" type="curve" smooth="yes"/>
      <point x="500" y="284"/>
      <point x="425" y="443"/>
      <point x="425" y="733" type="curve" smooth="yes"/>
      <point x="425" y="1029"/>
      <point x="502" y="1183"/>
      <point x="645" y="1183" type="curve" smooth="yes"/>
      <point x="789" y="1183"/>
      <point x="859" y="1035"/>
      <point x="859" y="733" type="curve" smooth="yes"/>
      <point x="859" y="434"/>
      <point x="788" y="284"/>
    </contour>
  </outline>
</glyph>
<glyph name="Aringacute" format="2">
  <advance width="1214"/>
  <unicode hex="01FA"/>
  <note>
Aringacute
</note>
  <outline>
    <contour>
      <point x="0" y="0" type="line"/>
      <point x="343" y="0" type="line"/>
      <point x="408" y="279" type="line"/>
      <point x="803" y="279" type="line"/>
      <point x="869" y="0" type="line"/>
      <point x="1214" y="0" type="line"/>
      <point x="860" y="1338" type="line"/>
      <point x="859" y="1338" type="line"/>
      <point x="869" y="1381"/>
      <point x="875" y="1440"/>
      <point x="875" y="1464" type="curve" smooth="yes"/>
      <point x="875" y="1621"/>
      <point x="760" y="1717"/>
      <point x="602" y="1717" type="curve" smooth="yes"/>
      <point x="444" y="1717"/>
      <point x="343" y="1621"/>
      <point x="343" y="1449" type="curve" smooth="yes"/>
      <point x="343" y="1425"/>
      <point x="345" y="1378"/>
      <point x="353" y="1335" type="curve"/>
      <point x="352" y="1335" type="line"/>
    </contour>
    <contour>
      <point x="477" y="581" type="line"/>
      <point x="495" y="654"/>
      <point x="565" y="956"/>
      <point x="577" y="1007" type="curve" smooth="yes"/>
      <point x="591" y="1069"/>
      <point x="599" y="1108"/>
      <point x="609" y="1152" type="curve"/>
      <point x="616" y="1117"/>
      <point x="632" y="1047"/>
      <point x="642" y="1004" type="curve" smooth="yes"/>
      <point x="663" y="914"/>
      <point x="690" y="799"/>
      <point x="742" y="581" type="curve"/>
    </contour>
    <contour>
      <point x="605" y="1372" type="curve" smooth="yes"/>
      <point x="552" y="1372"/>
      <point x="514" y="1400"/>
      <point x="514" y="1462" type="curve" smooth="yes"/>
      <point x="514" y="1522"/>
      <point x="550" y="1557"/>
      <point x="602" y="1557" type="curve" smooth="yes"/>
      <point x="652" y="1557"/>
      <point x="695" y="1524"/>
      <point x="695" y="1462" type="curve" smooth="yes"/>
      <point x="695" y="1412"/>
      <point x="668" y="1372"/>
    </contour>
    <contour>
      <point x="474" y="1777" type="line"/>
      <point x="720" y="1777" type="line"/>
      <point x="765" y="1790"/>
      <point x="1010" y="1923"/>
      <point x="1042" y="1951" type="curve"/>
      <point x="1042" y="1963" type="line"/>
      <point x="642" y="1963" type="line"/>
      <point x="595" y="1913"/>
      <point x="502" y="1816"/>
      <point x="474" y="1794" type="curve"/>
    </contour>
  </outline>
</glyph>
<glyph name="apostrophemod" format="2">
  <advance width="464"/>
  <unicode hex="02BC"/>
  <note>
afii57929
</note>
  <outline>
    <contour>
      <point x="10" y="947" type="curve"/>
      <point x="274" y="947" type="line"/>
      <point x="363" y="1148"/>
      <point x="424" y="1313"/>
      <point x="454" y="1440" type="curve"/>
      <point x="440" y="1462" type="line"/>
      <point x="111" y="1462" type="line"/>
      <point x="83" y="1293"/>
      <point x="50" y="1121"/>
    </contour>
  </outline>
</glyph>
<glyph name="lowringmod" format="2">
  <advance width="658"/>
  <unicode hex="02F3"/>
  <note>
uni02F3
</note>
  <anchor x="323" y="-1" name="_bottom"/>
  <outline>
    <contour>
      <point x="323" y="-629" type="curve" smooth="yes"/>
      <point x="482" y="-629"/>
      <point x="594" y="-527"/>
      <point x="594" y="-374" type="curve" smooth="yes"/>
      <point x="594" y="-225"/>
      <point x="481" y="-121"/>
      <point x="323" y="-121" type="curve" smooth="yes"/>
      <point x="166" y="-121"/>
      <point x="62" y="-219"/>
      <point x="62" y="-374" type="curve" smooth="yes"/>
      <point x="62" y="-531"/>
      <point x="166" y="-629"/>
    </contour>
    <contour>
      <point x="323" y="-466" type="curve" smooth="yes"/>
      <point x="263" y="-466"/>
      <point x="234" y="-439"/>
      <point x="234" y="-374" type="curve" smooth="yes"/>
      <point x="234" y="-317"/>
      <point x="270" y="-282"/>
      <point x="323" y="-282" type="curve" smooth="yes"/>
      <point x="370" y="-282"/>
      <point x="414" y="-317"/>
      <point x="414" y="-374" type="curve" smooth="yes"/>
      <point x="414" y="-435"/>
      <point x="374" y="-466"/>
    </contour>
  </outline>
</glyph>
<glyph name="macroncomb" format="2">
  <unicode hex="0304"/>
  <anchor x="336" y="1127" name="_top"/>
  <anchor x="336" y="1494" name="top"/>
  <outline>
    <contour>
      <point x="0" y="1244" type="line"/>
      <point x="672" y="1244" type="line"/>
      <point x="672" y="1494" type="line"/>
      <point x="0" y="1494" type="line"/>
    </contour>
  </outline>
</glyph>
<glyph name="anoteleia" format="2">
  <advance width="609"/>
  <unicode hex="0387"/>
  <note>
anoteleia
</note>
  <outline>
    <contour>
      <point x="304" y="535" type="curve" smooth="yes"/>
      <point x="436" y="535"/>
      <point x="508" y="608"/>
      <point x="508" y="724" type="curve" smooth="yes"/>
      <point x="508" y="841"/>
      <point x="441" y="912"/>
      <point x="304" y="912" type="curve" smooth="yes"/>
      <point x="171" y="912"/>
      <point x="101" y="842"/>
      <point x="101" y="724" type="curve" smooth="yes"/>
      <point x="101" y="607"/>
      <point x="172" y="535"/>
    </contour>
  </outline>
</glyph>
<glyph name="Theta" format="2">
  <advance width="1285"/>
  <unicode hex="0398"/>
  <note>
Theta
</note>
  <outline>
    <contour>
      <point x="643" y="-20" type="curve" smooth="yes"/>
      <point x="1008" y="-20"/>
      <point x="1212" y="249"/>
      <point x="1212" y="733" type="curve" smooth="yes"/>
      <point x="1212" y="1218"/>
      <point x="1010" y="1486"/>
      <point x="645" y="1486" type="curve" smooth="yes"/>
      <point x="280" y="1486"/>
      <point x="73" y="1210"/>
      <point x="73" y="735" type="curve" smooth="yes"/>
      <point x="73" y="244"/>
      <point x="277" y="-20"/>
    </contour>
    <contour>
      <point x="643" y="284" type="curve" smooth="yes"/>
      <point x="500" y="284"/>
      <point x="425" y="443"/>
      <point x="425" y="733" type="curve" smooth="yes"/>
      <point x="425" y="1029"/>
      <point x="502" y="1183"/>
      <point x="645" y="1183" type="curve" smooth="yes"/>
      <point x="789" y="1183"/>
      <point x="859" y="1035"/>
      <point x="859" y="733" type="curve" smooth="yes"/>
      <point x="859" y="434"/>
      <point x="788" y="284"/>
    </contour>
    <contour>
      <point x="501" y="593" type="line"/>
      <point x="784" y="593" type="line"/>
      <point x="784" y="891" type="line"/>
      <point x="501" y="891" type="line"/>
    </contour>
  </outline>
</glyph>
<glyph name="Omega" format="2">
  <advance width="1292"/>
  <unicode hex="03A9"/>
  <note>
uni03A9
</note>
  <anchor x="647" y="0" name="bottom"/>
  <anchor x="240" y="1522" name="topleft"/>
  <outline>
    <contour>
      <point x="24" y="0" type="line"/>
      <point x="582" y="0" type="line"/>
      <point x="582" y="315" type="line"/>
      <point x="478" y="433"/>
      <point x="429" y="584"/>
      <point x="429" y="808" type="curve" smooth="yes"/>
      <point x="429" y="1055"/>
      <point x="485" y="1183"/>
      <point x="646" y="1183" type="curve" smooth="yes"/>
      <point x="806" y="1183"/>
      <point x="860" y="1054"/>
      <point x="860" y="811" type="curve" smooth="yes"/>
      <point x="860" y="583"/>
      <point x="806" y="407"/>
      <point x="716" y="315" type="curve"/>
      <point x="716" y="0" type="line"/>
      <point x="1267" y="0" type="line"/>
      <point x="1267" y="305" type="line"/>
      <point x="967" y="305" type="line"/>
      <point x="1039" y="369"/>
      <point x="1096" y="440"/>
      <point x="1136" y="519" type="curve" smooth="yes"/>
      <point x="1188" y="620"/>
      <point x="1214" y="733"/>
      <point x="1214" y="858" type="curve" smooth="yes"/>
      <point x="1214" y="1051"/>
      <point x="1161" y="1207"/>
      <point x="1065" y="1315" type="curve" smooth="yes"/>
      <point x="967" y="1425"/>
      <point x="823.996" y="1486"/>
      <point x="646" y="1486" type="curve" smooth="yes"/>
      <point x="478" y="1486"/>
      <point x="341" y="1430"/>
      <point x="242" y="1330" type="curve" smooth="yes"/>
      <point x="134" y="1220"/>
      <point x="74" y="1058"/>
      <point x="74" y="861" type="curve" smooth="yes"/>
      <point x="74" y="741"/>
      <point x="96" y="636"/>
      <point x="143" y="541" type="curve" smooth="yes"/>
      <point x="185" y="456"/>
      <point x="246" y="379"/>
      <point x="329" y="305" type="curve"/>
      <point x="24" y="305" type="line"/>
    </contour>
  </outline>
</glyph>
<glyph name="omicron" format="2">
  <advance width="1082"/>
  <unicode hex="03BF"/>
  <note>
omicron
</note>
  <anchor x="540" y="1127" name="top"/>
  <outline>
    <contour>
      <point x="543" y="-20" type="curve" smooth="yes"/>
      <point x="831" y="-20"/>
      <point x="1015" y="205"/>
      <point x="1015" y="561" type="curve" smooth="yes"/>
      <point x="1015" y="916"/>
      <point x="832" y="1148"/>
      <point x="541" y="1148" type="curve" smooth="yes"/>
      <point x="245" y="1148"/>
      <point x="65" y="909"/>
      <point x="65" y="573" type="curve" smooth="yes"/>
      <point x="65" y="374"/>
      <point x="128" y="188"/>
      <point x="257" y="79" type="curve" smooth="yes"/>
      <point x="331" y="17"/>
      <point x="426" y="-20"/>
    </contour>
    <contour>
      <point x="540" y="265" type="curve" smooth="yes"/>
      <point x="420" y="265"/>
      <point x="412" y="417"/>
      <point x="412" y="552" type="curve" smooth="yes"/>
      <point x="412" y="717"/>
      <point x="427" y="860"/>
      <point x="541" y="860" type="curve" smooth="yes"/>
      <point x="656" y="860"/>
      <point x="670" y="729"/>
      <point x="670" y="562" type="curve" smooth="yes"/>
      <point x="670" y="418"/>
      <point x="646" y="265"/>
    </contour>
  </outline>
</glyph>
<glyph name="phi" format="2">
  <advance width="1449"/>
  <unicode hex="03C6"/>
  <note>
phi
</note>
  <outline>
    <contour>
      <point x="571" y="-492" type="line"/>
      <point x="882" y="-492" type="line"/>
      <point x="882" y="-20" type="line"/>
      <point x="1072" y="-10"/>
      <point x="1209" y="58"/>
      <point x="1291" y="188" type="curve" smooth="yes"/>
      <point x="1354" y="286"/>
      <point x="1385" y="421"/>
      <point x="1385" y="593" type="curve" smooth="yes"/>
      <point x="1385" y="960"/>
      <point x="1242" y="1139"/>
      <point x="964" y="1139" type="curve" smooth="yes"/>
      <point x="710" y="1139"/>
      <point x="571" y="990"/>
      <point x="571" y="711" type="curve" smooth="yes"/>
      <point x="571" y="240" type="line"/>
      <point x="467" y="258"/>
      <point x="394" y="342"/>
      <point x="394" y="564" type="curve" smooth="yes"/>
      <point x="394" y="689"/>
      <point x="417" y="796"/>
      <point x="516" y="1006" type="curve"/>
      <point x="242" y="1144" type="line"/>
      <point x="123" y="962"/>
      <point x="64" y="765"/>
      <point x="64" y="558" type="curve" smooth="yes"/>
      <point x="64" y="192"/>
      <point x="249" y="-2"/>
      <point x="571" y="-20" type="curve"/>
    </contour>
    <contour>
      <point x="882" y="240" type="curve"/>
      <point x="882" y="725" type="line" smooth="yes"/>
      <point x="882" y="835"/>
      <point x="917" y="885"/>
      <point x="965" y="885" type="curve" smooth="yes"/>
      <point x="1009" y="885"/>
      <point x="1039" y="844"/>
      <point x="1049" y="778" type="curve" smooth="yes"/>
      <point x="1056" y="734"/>
      <point x="1056" y="629"/>
      <point x="1056" y="590" type="curve" smooth="yes"/>
      <point x="1056" y="488"/>
      <point x="1049" y="438"/>
      <point x="1028" y="379" type="curve" smooth="yes"/>
      <point x="998" y="296"/>
      <point x="957" y="252"/>
    </contour>
  </outline>
</glyph>
<glyph name="chi" format="2">
  <advance width="1181"/>
  <unicode hex="03C7"/>
  <note>
chi
</note>
  <outline>
    <contour>
      <point x="3" y="-492" type="line"/>
      <point x="338" y="-492" type="line"/>
      <point x="557" y="4" type="line"/>
      <point x="585" y="-96" type="line" smooth="yes"/>
      <point x="617" y="-211"/>
      <point x="647" y="-288"/>
      <point x="679" y="-341" type="curve" smooth="yes"/>
      <point x="742" y="-446"/>
      <point x="836" y="-492"/>
      <point x="979" y="-492" type="curve" smooth="yes"/>
      <point x="1035" y="-492"/>
      <point x="1082" y="-485"/>
      <point x="1131" y="-472" type="curve"/>
      <point x="1131" y="-183" type="line"/>
      <point x="1092" y="-190"/>
      <point x="1062" y="-191"/>
      <point x="1043" y="-191" type="curve" smooth="yes"/>
      <point x="985" y="-191"/>
      <point x="943" y="-182"/>
      <point x="914" y="-131" type="curve" smooth="yes"/>
      <point x="901" y="-108"/>
      <point x="888" y="-73"/>
      <point x="871" y="-21" type="curve" smooth="yes"/>
      <point x="753" y="343" type="line"/>
      <point x="1155" y="1127" type="line"/>
      <point x="819" y="1127" type="line"/>
      <point x="603" y="638" type="line"/>
      <point x="572" y="749" type="line" smooth="yes"/>
      <point x="546" y="843"/>
      <point x="522" y="923"/>
      <point x="491" y="980" type="curve" smooth="yes"/>
      <point x="432" y="1088"/>
      <point x="336" y="1139"/>
      <point x="189" y="1139" type="curve" smooth="yes"/>
      <point x="135" y="1139"/>
      <point x="89" y="1132"/>
      <point x="38" y="1121" type="curve"/>
      <point x="38" y="829" type="line"/>
      <point x="78" y="836"/>
      <point x="106" y="839"/>
      <point x="132" y="839" type="curve" smooth="yes"/>
      <point x="188" y="839"/>
      <point x="228" y="825"/>
      <point x="257" y="767" type="curve" smooth="yes"/>
      <point x="268" y="745"/>
      <point x="280" y="714"/>
      <point x="293" y="674" type="curve" smooth="yes"/>
      <point x="411" y="320" type="line"/>
    </contour>
  </outline>
</glyph>
<glyph name="omega" format="2">
  <advance width="1526"/>
  <unicode hex="03C9"/>
  <note>
omega
</note>
  <anchor x="762" y="0" name="bottom"/>
  <anchor x="762" y="1127" name="top"/>
  <outline>
    <contour>
      <point x="471" y="-20" type="curve" smooth="yes"/>
      <point x="628" y="-20"/>
      <point x="711" y="63"/>
      <point x="758" y="193" type="curve"/>
      <point x="768" y="193" type="line"/>
      <point x="813" y="74"/>
      <point x="890" y="-20"/>
      <point x="1060" y="-20" type="curve" smooth="yes"/>
      <point x="1141" y="-20"/>
      <point x="1210" y="1"/>
      <point x="1267" y="41" type="curve" smooth="yes"/>
      <point x="1392" y="129"/>
      <point x="1455" y="309"/>
      <point x="1455" y="564" type="curve" smooth="yes"/>
      <point x="1455" y="734"/>
      <point x="1427" y="912"/>
      <point x="1340" y="1127" type="curve"/>
      <point x="988" y="1127" type="line"/>
      <point x="1069" y="948"/>
      <point x="1112" y="769"/>
      <point x="1112" y="544" type="curve" smooth="yes"/>
      <point x="1112" y="353"/>
      <point x="1081" y="257"/>
      <point x="1013" y="257" type="curve" smooth="yes"/>
      <point x="979" y="257"/>
      <point x="949" y="280"/>
      <point x="932" y="346" type="curve" smooth="yes"/>
      <point x="924" y="377"/>
      <point x="920" y="414"/>
      <point x="920" y="462" type="curve" smooth="yes"/>
      <point x="920" y="785" type="line"/>
      <point x="608" y="785" type="line"/>
      <point x="608" y="462" type="line" smooth="yes"/>
      <point x="608" y="390"/>
      <point x="599" y="338"/>
      <point x="582" y="304" type="curve" smooth="yes"/>
      <point x="566" y="273"/>
      <point x="540" y="257"/>
      <point x="513" y="257" type="curve" smooth="yes"/>
      <point x="447" y="257"/>
      <point x="414" y="352"/>
      <point x="414" y="547" type="curve" smooth="yes"/>
      <point x="414" y="767"/>
      <point x="456" y="948"/>
      <point x="538" y="1127" type="curve"/>
      <point x="184" y="1127" type="line"/>
      <point x="107" y="930"/>
      <point x="72" y="768"/>
      <point x="72" y="565" type="curve" smooth="yes"/>
      <point x="72" y="420"/>
      <point x="90" y="309"/>
      <point x="134" y="212" type="curve" smooth="yes"/>
      <point x="197" y="73"/>
      <point x="305" y="-20"/>
    </contour>
  </outline>
</glyph>
<glyph name="Tshe-cy" format="2">
  <advance width="1419"/>
  <unicode hex="040B"/>
  <note>
afii10060
</note>
  <outline>
    <contour>
      <point x="313" y="0" type="line"/>
      <point x="656" y="0" type="line"/>
      <point x="656" y="645" type="line"/>
      <point x="836" y="645" type="line" smooth="yes"/>
      <point x="935" y="645"/>
      <point x="971" y="605"/>
      <point x="971" y="501" type="curve" smooth="yes"/>
      <point x="971" y="0" type="line"/>
      <point x="1315" y="0" type="line"/>
      <point x="1315" y="540" type="line" smooth="yes"/>
      <point x="1315" y="820"/>
      <point x="1184" y="948"/>
      <point x="883" y="948" type="curve" smooth="yes"/>
      <point x="656" y="948" type="line"/>
      <point x="656" y="1161" type="line"/>
      <point x="942" y="1161" type="line"/>
      <point x="942" y="1462" type="line"/>
      <point x="33" y="1462" type="line"/>
      <point x="33" y="1161" type="line"/>
      <point x="313" y="1161" type="line"/>
    </contour>
  </outline>
</glyph>
<glyph name="El-cy" format="2">
  <advance width="1260"/>
  <unicode hex="041B"/>
  <note>
afii10029
</note>
  <anchor x="1082" y="0" name="cyrillicbighook"/>
  <outline>
    <contour>
      <point x="159" y="-23" type="curve" smooth="yes"/>
      <point x="376" y="-23"/>
      <point x="480" y="128"/>
      <point x="525" y="452" type="curve" smooth="yes"/>
      <point x="561.4956746447032" y="720.3505488581118"/>
      <point x="601.1365143068867" y="1077.4942574004556"/>
      <point x="608" y="1161" type="curve"/>
      <point x="798" y="1161" type="line"/>
      <point x="798" y="0" type="line"/>
      <point x="1145" y="0" type="line"/>
      <point x="1145" y="1462" type="line"/>
      <point x="308" y="1462" type="line"/>
      <point x="292" y="1285"/>
      <point x="258" y="987"/>
      <point x="236" y="811" type="curve" smooth="yes"/>
      <point x="208" y="588"/>
      <point x="183" y="432"/>
      <point x="166" y="371" type="curve" smooth="yes"/>
      <point x="151" y="316"/>
      <point x="122" y="273"/>
      <point x="93" y="273" type="curve" smooth="yes"/>
      <point x="53" y="273"/>
      <point x="31" y="276"/>
      <point x="9" y="283" type="curve"/>
      <point x="9" y="1" type="line"/>
      <point x="53" y="-18"/>
      <point x="120" y="-23"/>
    </contour>
  </outline>
</glyph>
<glyph name="lje-cy" format="2">
  <advance width="1666"/>
  <unicode hex="0459"/>
  <note>
afii10106
</note>
  <outline>
    <contour>
      <point x="164" y="-22" type="curve" smooth="yes"/>
      <point x="349" y="-22"/>
      <point x="472" y="107"/>
      <point x="533" y="424" type="curve" smooth="yes"/>
      <point x="557" y="549"/>
      <point x="577" y="693"/>
      <point x="590" y="858" type="curve"/>
      <point x="716" y="858" type="line"/>
      <point x="716" y="0" type="line"/>
      <point x="1125" y="0" type="line" smooth="yes"/>
      <point x="1456" y="0"/>
      <point x="1615" y="118"/>
      <point x="1615" y="374" type="curve" smooth="yes"/>
      <point x="1615" y="601"/>
      <point x="1468" y="707"/>
      <point x="1135" y="707" type="curve" smooth="yes"/>
      <point x="1061" y="707" type="line"/>
      <point x="1061" y="1127" type="line"/>
      <point x="286" y="1127" type="line"/>
      <point x="273" y="940"/>
      <point x="258" y="779"/>
      <point x="243" y="657" type="curve" smooth="yes"/>
      <point x="240" y="632"/>
      <point x="230" y="574"/>
      <point x="222" y="534" type="curve" smooth="yes"/>
      <point x="190" y="367"/>
      <point x="139" y="270"/>
      <point x="83" y="270" type="curve" smooth="yes"/>
      <point x="51" y="270"/>
      <point x="30" y="273"/>
      <point x="5" y="281" type="curve"/>
      <point x="5" y="7" type="line"/>
      <point x="45" y="-14"/>
      <point x="96" y="-22"/>
    </contour>
    <contour>
      <point x="1061" y="247" type="line"/>
      <point x="1061" y="460" type="line"/>
      <point x="1107" y="460" type="line" smooth="yes"/>
      <point x="1219" y="460"/>
      <point x="1265" y="436"/>
      <point x="1265" y="365" type="curve" smooth="yes"/>
      <point x="1265" y="273"/>
      <point x="1210" y="247"/>
      <point x="1114" y="247" type="curve" smooth="yes"/>
    </contour>
  </outline>
</glyph>
<glyph name="omega-cy" format="2">
  <advance width="1591"/>
  <unicode hex="0461"/>
  <note>
uni0461
</note>
  <guideline x="722" y="564" angle="101.7784"/>
  <outline>
    <contour>
      <point x="295" y="0" type="line"/>
      <point x="695" y="0" type="line"/>
      <point x="711" y="77"/>
      <point x="726" y="153"/>
      <point x="742" y="230" type="curve"/>
      <point x="750" y="267"/>
      <point x="758" y="305"/>
      <point x="766" y="342" type="curve"/>
      <point x="768" y="342" type="line"/>
      <point x="777" y="290"/>
      <point x="790" y="237"/>
      <point x="801" y="185" type="curve" smooth="yes"/>
      <point x="814" y="123"/>
      <point x="826" y="62"/>
      <point x="839" y="0" type="curve"/>
      <point x="1179" y="0" type="line"/>
      <point x="1420" y="277"/>
      <point x="1540" y="644"/>
      <point x="1540" y="1127" type="curve"/>
      <point x="1205" y="1127" type="line"/>
      <point x="1205" y="749"/>
      <point x="1174" y="521"/>
      <point x="1068" y="311" type="curve"/>
      <point x="1060" y="311" type="line"/>
      <point x="1052" y="381"/>
      <point x="1043" y="440"/>
      <point x="1036" y="482" type="curve" smooth="yes"/>
      <point x="936" y="1127" type="line"/>
      <point x="604" y="1127" type="line"/>
      <point x="650" y="903" type="line"/>
      <point x="551" y="511" type="line" smooth="yes"/>
      <point x="545" y="488"/>
      <point x="530" y="407"/>
      <point x="513" y="305" type="curve"/>
      <point x="508" y="305" type="line"/>
      <point x="506" y="327"/>
      <point x="501" y="358"/>
      <point x="498" y="374" type="curve" smooth="yes"/>
      <point x="339" y="1127" type="line"/>
      <point x="-14" y="1127" type="line"/>
    </contour>
  </outline>
</glyph>
<glyph name="fita-cy" format="2">
  <advance width="1080"/>
  <unicode hex="0473"/>
  <note>
afii10195
</note>
  <outline>
    <contour>
      <point x="543" y="-20" type="curve" smooth="yes"/>
      <point x="827" y="-20"/>
      <point x="1015" y="200"/>
      <point x="1015" y="561" type="curve" smooth="yes"/>
      <point x="1015" y="725"/>
      <point x="977" y="863"/>
      <point x="906" y="964" type="curve" smooth="yes"/>
      <point x="824" y="1081"/>
      <point x="698" y="1148"/>
      <point x="541" y="1148" type="curve" smooth="yes"/>
      <point x="252" y="1148"/>
      <point x="65" y="921"/>
      <point x="65" y="568" type="curve" smooth="yes"/>
      <point x="65" y="455"/>
      <point x="84" y="358"/>
      <point x="121" y="271" type="curve" smooth="yes"/>
      <point x="202" y="81"/>
      <point x="351" y="-20"/>
    </contour>
    <contour>
      <point x="542" y="268" type="curve" smooth="yes"/>
      <point x="477" y="268"/>
      <point x="432" y="318"/>
      <point x="414" y="436" type="curve"/>
      <point x="668" y="436" type="line"/>
      <point x="647" y="329"/>
      <point x="614" y="268"/>
    </contour>
    <contour>
      <point x="417" y="685" type="line"/>
      <point x="430" y="795"/>
      <point x="469" y="860"/>
      <point x="543" y="860" type="curve" smooth="yes"/>
      <point x="615" y="860"/>
      <point x="649" y="799"/>
      <point x="666" y="685" type="curve"/>
    </contour>
  </outline>
</glyph>
<glyph name="uni047F" format="2">
  <advance width="1591"/>
  <unicode hex="047F"/>
  <note>
uni047F
</note>
  <outline>
    <contour>
      <point x="387" y="1198" type="line"/>
      <point x="429" y="1198" type="line"/>
      <point x="481" y="1290" type="line"/>
      <point x="690" y="1290" type="line"/>
      <point x="744" y="1198" type="line"/>
      <point x="784" y="1198" type="line"/>
      <point x="839" y="1290" type="line"/>
      <point x="1043" y="1290" type="line"/>
      <point x="1099" y="1198" type="line"/>
      <point x="1140" y="1198" type="line"/>
      <point x="1229" y="1365" type="line"/>
      <point x="1229" y="1480" type="line"/>
      <point x="300" y="1480" type="line"/>
      <point x="300" y="1365" type="line"/>
    </contour>
    <component base="omega-cy"/>
  </outline>
</glyph>
<glyph name="Semisoftsign-cy" format="2">
  <advance width="1047"/>
  <unicode hex="048C"/>
  <note>
uni048C
</note>
  <outline>
    <contour>
      <point x="132" y="0" type="line"/>
      <point x="525" y="0" type="line" smooth="yes"/>
      <point x="836" y="0"/>
      <point x="996" y="182"/>
      <point x="996" y="484" type="curve" smooth="yes"/>
      <point x="996" y="777"/>
      <point x="822" y="924"/>
      <point x="507" y="924" type="curve" smooth="yes"/>
      <point x="481" y="924" type="line"/>
      <point x="481" y="1032" type="line"/>
      <point x="655" y="1032" type="line"/>
      <point x="655" y="1334" type="line"/>
      <point x="481" y="1334" type="line"/>
      <point x="481" y="1462" type="line"/>
      <point x="132" y="1462" type="line"/>
      <point x="132" y="1334" type="line"/>
      <point x="42" y="1334" type="line"/>
      <point x="42" y="1032" type="line"/>
      <point x="132" y="1032" type="line"/>
    </contour>
    <contour>
      <point x="481" y="298" type="line"/>
      <point x="481" y="623" type="line"/>
      <point x="482.995" y="622.996" type="line"/>
      <point x="609" y="623"/>
      <point x="647" y="579"/>
      <point x="647" y="471" type="curve" smooth="yes"/>
      <point x="647" y="356"/>
      <point x="603" y="298"/>
      <point x="508" y="298" type="curve" smooth="yes"/>
    </contour>
  </outline>
</glyph>
<glyph name="kadescender-cy" format="2">
  <advance width="1153"/>
  <unicode hex="049B"/>
  <note>
uni049B
</note>
  <outline>
    <contour>
      <point x="788" y="-410" type="line"/>
      <point x="1124" y="-410" type="line"/>
      <point x="1124" y="260" type="line"/>
      <point x="940" y="260" type="line"/>
      <point x="768" y="591" type="line"/>
      <point x="1068" y="1127" type="line"/>
      <point x="715" y="1127" type="line"/>
      <point x="439" y="579" type="line"/>
      <point x="439" y="1127" type="line"/>
      <point x="99" y="1127" type="line"/>
      <point x="99" y="0" type="line"/>
      <point x="439" y="0" type="line"/>
      <point x="439" y="579" type="line"/>
      <point x="713" y="0" type="line"/>
      <point x="788" y="0" type="line"/>
    </contour>
  </outline>
</glyph>
<glyph name="kastroke-cy" format="2">
  <advance width="1091"/>
  <unicode hex="049F"/>
  <note>
uni049F
</note>
  <outline>
    <contour>
      <point x="116" y="0" type="line"/>
      <point x="456" y="0" type="line"/>
      <point x="456" y="576" type="line"/>
      <point x="730" y="0" type="line"/>
      <point x="1100" y="0" type="line"/>
      <point x="785" y="591" type="line"/>
      <point x="1085" y="1127" type="line"/>
      <point x="732" y="1127" type="line"/>
      <point x="456" y="586" type="line"/>
      <point x="456" y="1102" type="line"/>
      <point x="665" y="1102" type="line"/>
      <point x="665" y="1333" type="line"/>
      <point x="456" y="1333" type="line"/>
      <point x="456" y="1556" type="line"/>
      <point x="116" y="1556" type="line"/>
      <point x="116" y="1333" type="line"/>
      <point x="6" y="1333" type="line"/>
      <point x="6" y="1102" type="line"/>
      <point x="116" y="1102" type="line"/>
    </contour>
  </outline>
</glyph>
<glyph name="Kabashkir-cy" format="2">
  <advance width="1263"/>
  <unicode hex="04A0"/>
  <note>
uni04A0
</note>
  <outline>
    <contour>
      <point x="250" y="0" type="line"/>
      <point x="597" y="0" type="line"/>
      <point x="597" y="488" type="line"/>
      <point x="703" y="581" type="line"/>
      <point x="896" y="0" type="line"/>
      <point x="1263" y="0" type="line"/>
      <point x="946" y="834" type="line"/>
      <point x="1270" y="1462" type="line"/>
      <point x="903" y="1462" type="line"/>
      <point x="687" y="995" type="line"/>
      <point x="597" y="759" type="line"/>
      <point x="597" y="1462" type="line"/>
      <point x="-1" y="1462" type="line"/>
      <point x="-1" y="1161" type="line"/>
      <point x="250" y="1161" type="line"/>
    </contour>
  </outline>
</glyph>
<glyph name="Pemiddlehook-cy" format="2">
  <advance width="1719"/>
  <unicode hex="04A6"/>
  <note>
uni04A6
</note>
  <outline>
    <contour>
      <point x="1226" y="-512" type="curve" smooth="yes"/>
      <point x="1278" y="-512"/>
      <point x="1368" y="-497"/>
      <point x="1437" y="-457" type="curve" smooth="yes"/>
      <point x="1605" y="-359"/>
      <point x="1698" y="-126"/>
      <point x="1698" y="146" type="curve" smooth="yes"/>
      <point x="1698" y="214"/>
      <point x="1687" y="312"/>
      <point x="1660" y="409" type="curve" smooth="yes"/>
      <point x="1585" y="680"/>
      <point x="1361" y="806"/>
      <point x="1155" y="806" type="curve" smooth="yes"/>
      <point x="1135" y="806"/>
      <point x="1129" y="808"/>
      <point x="1128" y="810" type="curve"/>
      <point x="1128" y="1462" type="line"/>
      <point x="115" y="1462" type="line"/>
      <point x="115" y="0" type="line"/>
      <point x="462" y="0" type="line"/>
      <point x="462" y="1161" type="line"/>
      <point x="784" y="1161" type="line"/>
      <point x="784" y="0" type="line"/>
      <point x="1128" y="0" type="line"/>
      <point x="1128" y="498" type="line"/>
      <point x="1134" y="498"/>
      <point x="1142" y="498"/>
      <point x="1147" y="498" type="curve" smooth="yes"/>
      <point x="1328" y="488"/>
      <point x="1364" y="346"/>
      <point x="1364" y="140" type="curve" smooth="yes"/>
      <point x="1364" y="63"/>
      <point x="1348" y="-17"/>
      <point x="1316" y="-78" type="curve" smooth="yes"/>
      <point x="1277" y="-153"/>
      <point x="1212" y="-193"/>
      <point x="1159" y="-193" type="curve" smooth="yes"/>
      <point x="1077" y="-193"/>
      <point x="995" y="-172"/>
      <point x="899" y="-133" type="curve"/>
      <point x="899" y="-456" type="line"/>
      <point x="1011" y="-504"/>
      <point x="1069" y="-512"/>
    </contour>
  </outline>
</glyph>
<glyph name="shha-cy" format="2">
  <advance width="1110"/>
  <unicode hex="04BB"/>
  <note>
uni04BB
</note>
  <anchor x="1084" y="0" name="bottomright"/>
  <outline>
    <contour>
      <point x="99" y="0" type="line"/>
      <point x="439" y="0" type="line"/>
      <point x="439" y="332" type="line" smooth="yes"/>
      <point x="439" y="413"/>
      <point x="445" y="455"/>
      <point x="468" y="507" type="curve" smooth="yes"/>
      <point x="479" y="532"/>
      <point x="523" y="550"/>
      <point x="577" y="550" type="curve" smooth="yes"/>
      <point x="653" y="550"/>
      <point x="682" y="512"/>
      <point x="682" y="418" type="curve" smooth="yes"/>
      <point x="682" y="0" type="line"/>
      <point x="1025" y="0" type="line"/>
      <point x="1025" y="483" type="line" smooth="yes"/>
      <point x="1025" y="709"/>
      <point x="908" y="831"/>
      <point x="685" y="831" type="curve" smooth="yes"/>
      <point x="580" y="831"/>
      <point x="514" y="798"/>
      <point x="450" y="714" type="curve"/>
      <point x="427" y="714" type="line"/>
      <point x="436" y="815"/>
      <point x="439" y="861"/>
      <point x="439" y="888" type="curve" smooth="yes"/>
      <point x="439" y="1127" type="line"/>
      <point x="99" y="1127" type="line"/>
    </contour>
  </outline>
</glyph>
<glyph name="entail-cy" format="2">
  <advance width="1241"/>
  <unicode hex="04CA"/>
  <note>
uni04CA
</note>
  <outline>
    <contour>
      <point x="731" y="-410" type="line"/>
      <point x="1070" y="-410" type="line"/>
      <point x="1221" y="258" type="line"/>
      <point x="1039" y="258" type="line"/>
      <point x="1039" y="1127" type="line"/>
      <point x="696" y="1127" type="line"/>
      <point x="696" y="710" type="line"/>
      <point x="439" y="710" type="line"/>
      <point x="439" y="1127" type="line"/>
      <point x="99" y="1127" type="line"/>
      <point x="99" y="0" type="line"/>
      <point x="439" y="0" type="line"/>
      <point x="439" y="443" type="line"/>
      <point x="696" y="443" type="line"/>
      <point x="696" y="0" type="line"/>
      <point x="872" y="0" type="line"/>
    </contour>
  </outline>
</glyph>
<glyph name="Chekhakassian-cy" format="2">
  <advance width="1221"/>
  <unicode hex="04CB"/>
  <note>
uni04CB
</note>
  <outline>
    <contour>
      <point x="560" y="-440" type="line"/>
      <point x="895" y="-440" type="line"/>
      <point x="895" y="0" type="line"/>
      <point x="1105" y="0" type="line"/>
      <point x="1105" y="1462" type="line"/>
      <point x="759" y="1462" type="line"/>
      <point x="759" y="832" type="line"/>
      <point x="708" y="797"/>
      <point x="645" y="762"/>
      <point x="575" y="762" type="curve" smooth="yes"/>
      <point x="496" y="762"/>
      <point x="467" y="811"/>
      <point x="467" y="933" type="curve" smooth="yes"/>
      <point x="467" y="1462" type="line"/>
      <point x="120" y="1462" type="line"/>
      <point x="120" y="846" type="line" smooth="yes"/>
      <point x="120" y="608"/>
      <point x="260" y="459"/>
      <point x="491" y="459" type="curve" smooth="yes"/>
      <point x="584" y="459"/>
      <point x="674" y="487"/>
      <point x="759" y="542" type="curve"/>
      <point x="759" y="287" type="line"/>
      <point x="560" y="287" type="line"/>
    </contour>
  </outline>
</glyph>
<glyph name="chekhakassian-cy" format="2">
  <advance width="1111"/>
  <unicode hex="04CC"/>
  <note>
uni04CC
</note>
  <outline>
    <contour>
      <point x="505" y="-410" type="line"/>
      <point x="843" y="-410" type="line"/>
      <point x="843" y="0" type="line"/>
      <point x="1015" y="0" type="line"/>
      <point x="1015" y="1127" type="line"/>
      <point x="672" y="1127" type="line"/>
      <point x="672" y="647" type="line"/>
      <point x="619" y="613"/>
      <point x="585" y="592"/>
      <point x="521" y="592" type="curve" smooth="yes"/>
      <point x="456" y="592"/>
      <point x="434" y="632"/>
      <point x="434" y="727" type="curve" smooth="yes"/>
      <point x="434" y="1127" type="line"/>
      <point x="93" y="1127" type="line"/>
      <point x="93" y="687" type="line" smooth="yes"/>
      <point x="93" y="452"/>
      <point x="199" y="331"/>
      <point x="396" y="331" type="curve" smooth="yes"/>
      <point x="482" y="331"/>
      <point x="570" y="364"/>
      <point x="672" y="431" type="curve"/>
      <point x="672" y="260" type="line"/>
      <point x="505" y="260" type="line"/>
    </contour>
  </outline>
</glyph>
<glyph name="Hastroke-cy" format="2">
  <advance width="1078"/>
  <unicode hex="04FE"/>
  <note>
uni04FE
</note>
  <outline>
    <contour>
      <point x="-9" y="0" type="line"/>
      <point x="353" y="0" type="line"/>
      <point x="520" y="449" type="line"/>
      <point x="727" y="0" type="line"/>
      <point x="1087" y="0" type="line"/>
      <point x="783" y="586" type="line"/>
      <point x="996" y="586" type="line"/>
      <point x="996" y="884" type="line"/>
      <point x="786" y="884" type="line"/>
      <point x="1052" y="1462" type="line"/>
      <point x="687" y="1462" type="line"/>
      <point x="541" y="1037" type="line"/>
      <point x="356" y="1462" type="line"/>
      <point x="9" y="1462" type="line"/>
      <point x="282" y="884" type="line"/>
      <point x="64" y="884" type="line"/>
      <point x="64" y="586" type="line"/>
      <point x="270" y="586" type="line"/>
    </contour>
  </outline>
</glyph>
<glyph name="Komidje-cy" format="2">
  <advance width="1434"/>
  <unicode hex="0502"/>
  <note>
uni0502
</note>
  <outline>
    <contour>
      <point x="440" y="-17" type="curve" smooth="yes"/>
      <point x="573" y="-17"/>
      <point x="665" y="29"/>
      <point x="719" y="71" type="curve"/>
      <point x="775" y="14"/>
      <point x="867" y="-20"/>
      <point x="983" y="-20" type="curve" smooth="yes"/>
      <point x="1230" y="-20"/>
      <point x="1393" y="133"/>
      <point x="1393" y="377" type="curve" smooth="yes"/>
      <point x="1393" y="848" type="line"/>
      <point x="1050" y="848" type="line"/>
      <point x="1050" y="469" type="line" smooth="yes"/>
      <point x="1050" y="406"/>
      <point x="1046" y="357"/>
      <point x="1036" y="326" type="curve" smooth="yes"/>
      <point x="1025" y="292"/>
      <point x="1006" y="278"/>
      <point x="980" y="278" type="curve" smooth="yes"/>
      <point x="939" y="278"/>
      <point x="922" y="312"/>
      <point x="922" y="371" type="curve" smooth="yes"/>
      <point x="922" y="1462" type="line"/>
      <point x="575" y="1462" type="line"/>
      <point x="575" y="905" type="line"/>
      <point x="516" y="905" type="line" smooth="yes"/>
      <point x="430" y="905"/>
      <point x="351" y="888"/>
      <point x="284" y="855" type="curve" smooth="yes"/>
      <point x="133" y="780"/>
      <point x="45" y="622"/>
      <point x="45" y="416" type="curve" smooth="yes"/>
      <point x="45" y="162"/>
      <point x="178" y="-17"/>
    </contour>
    <contour>
      <point x="481" y="278" type="curve" smooth="yes"/>
      <point x="459" y="278"/>
      <point x="431" y="288"/>
      <point x="414" y="319" type="curve" smooth="yes"/>
      <point x="399" y="346"/>
      <point x="393" y="389"/>
      <point x="393" y="427" type="curve" smooth="yes"/>
      <point x="393" y="545"/>
      <point x="452" y="604"/>
      <point x="569" y="604" type="curve" smooth="yes"/>
      <point x="575" y="604" type="line"/>
      <point x="575" y="365" type="line" smooth="yes"/>
      <point x="575" y="319"/>
      <point x="526" y="278"/>
    </contour>
  </outline>
</glyph>
<glyph name="sheva-hb" format="2">
  <unicode hex="05B0"/>
  <note>
afii57799
</note>
  <anchor x="-3" y="-90" name="_bottom"/>
  <outline>
    <contour>
      <point x="1" y="-293" type="curve" smooth="yes"/>
      <point x="66" y="-293"/>
      <point x="108" y="-256"/>
      <point x="108" y="-202" type="curve" smooth="yes"/>
      <point x="108" y="-148"/>
      <point x="66" y="-110"/>
      <point x="1" y="-110" type="curve" smooth="yes"/>
      <point x="-65" y="-110"/>
      <point x="-108" y="-148"/>
      <point x="-108" y="-202" type="curve" smooth="yes"/>
      <point x="-108" y="-256"/>
      <point x="-65" y="-293"/>
    </contour>
    <contour>
      <point x="1" y="-524" type="curve" smooth="yes"/>
      <point x="66" y="-524"/>
      <point x="108" y="-486"/>
      <point x="108" y="-433" type="curve" smooth="yes"/>
      <point x="108" y="-380"/>
      <point x="66" y="-341"/>
      <point x="1" y="-341" type="curve" smooth="yes"/>
      <point x="-65" y="-341"/>
      <point x="-108" y="-380"/>
      <point x="-108" y="-434" type="curve" smooth="yes"/>
      <point x="-108" y="-488"/>
      <point x="-65" y="-524"/>
    </contour>
  </outline>
</glyph>
<glyph name="tsere-hb" format="2">
  <unicode hex="05B5"/>
  <note>
afii57794
</note>
  <anchor x="1" y="-77" name="_bottom"/>
  <outline>
    <contour>
      <point x="150" y="-280" type="curve" smooth="yes"/>
      <point x="215" y="-280"/>
      <point x="259" y="-242"/>
      <point x="259" y="-189" type="curve" smooth="yes"/>
      <point x="259" y="-137"/>
      <point x="215" y="-97"/>
      <point x="150" y="-97" type="curve" smooth="yes"/>
      <point x="82" y="-97"/>
      <point x="40" y="-133"/>
      <point x="40" y="-189" type="curve" smooth="yes"/>
      <point x="40" y="-247"/>
      <point x="82" y="-280"/>
    </contour>
    <contour>
      <point x="-153" y="-280" type="curve" smooth="yes"/>
      <point x="-87" y="-280"/>
      <point x="-46" y="-242"/>
      <point x="-46" y="-188" type="curve" smooth="yes"/>
      <point x="-46" y="-135"/>
      <point x="-88" y="-97"/>
      <point x="-153" y="-97" type="curve" smooth="yes"/>
      <point x="-211" y="-97"/>
      <point x="-259" y="-126"/>
      <point x="-259" y="-188" type="curve" smooth="yes"/>
      <point x="-259" y="-243"/>
      <point x="-218" y="-280"/>
    </contour>
  </outline>
</glyph>
<glyph name="segol-hb" format="2">
  <unicode hex="05B6"/>
  <note>
afii57795
</note>
  <anchor x="-1" y="-111" name="_bottom"/>
  <outline>
    <contour>
      <point x="5" y="-545" type="curve" smooth="yes"/>
      <point x="69" y="-545"/>
      <point x="111" y="-507"/>
      <point x="111" y="-454" type="curve" smooth="yes"/>
      <point x="111" y="-401"/>
      <point x="69" y="-363"/>
      <point x="5" y="-363" type="curve" smooth="yes"/>
      <point x="-62" y="-363"/>
      <point x="-104" y="-401"/>
      <point x="-104" y="-455" type="curve" smooth="yes"/>
      <point x="-104" y="-510"/>
      <point x="-62" y="-545"/>
    </contour>
    <contour>
      <point x="148" y="-314" type="curve" smooth="yes"/>
      <point x="216" y="-314"/>
      <point x="259" y="-278"/>
      <point x="259" y="-223" type="curve" smooth="yes"/>
      <point x="259" y="-171"/>
      <point x="216" y="-131"/>
      <point x="148" y="-131" type="curve" smooth="yes"/>
      <point x="81" y="-131"/>
      <point x="40" y="-167"/>
      <point x="40" y="-223" type="curve" smooth="yes"/>
      <point x="40" y="-281"/>
      <point x="81" y="-314"/>
    </contour>
    <contour>
      <point x="-153" y="-314" type="curve" smooth="yes"/>
      <point x="-87" y="-314"/>
      <point x="-46" y="-278"/>
      <point x="-46" y="-223" type="curve" smooth="yes"/>
      <point x="-46" y="-169"/>
      <point x="-88" y="-131"/>
      <point x="-153" y="-131" type="curve" smooth="yes"/>
      <point x="-211" y="-131"/>
      <point x="-259" y="-160"/>
      <point x="-259" y="-222" type="curve" smooth="yes"/>
      <point x="-259" y="-278"/>
      <point x="-217" y="-314"/>
    </contour>
  </outline>
</glyph>
<glyph name="holam-hb" format="2">
  <unicode hex="05B9"/>
  <note>
afii57806
</note>
  <anchor x="-2" y="1383" name="_top"/>
  <outline>
    <contour>
      <point x="-1" y="1410" type="curve" smooth="yes"/>
      <point x="66" y="1410"/>
      <point x="109" y="1448"/>
      <point x="109" y="1501" type="curve" smooth="yes"/>
      <point x="109" y="1554"/>
      <point x="66" y="1593"/>
      <point x="1" y="1593" type="curve" smooth="yes"/>
      <point x="-65" y="1593"/>
      <point x="-109" y="1559"/>
      <point x="-109" y="1501" type="curve" smooth="yes"/>
      <point x="-109" y="1444"/>
      <point x="-69" y="1410"/>
    </contour>
  </outline>
</glyph>
<glyph name="qubuts-hb" format="2">
  <unicode hex="05BB"/>
  <note>
afii57796
</note>
  <anchor x="0" y="-127" name="_bottom"/>
  <outline>
    <contour>
      <point x="-202" y="-330" type="curve" smooth="yes"/>
      <point x="-137" y="-330"/>
      <point x="-97" y="-294"/>
      <point x="-97" y="-239" type="curve" smooth="yes"/>
      <point x="-97" y="-185"/>
      <point x="-139" y="-147"/>
      <point x="-202" y="-147" type="curve" smooth="yes"/>
      <point x="-260" y="-147"/>
      <point x="-308" y="-175"/>
      <point x="-308" y="-238" type="curve" smooth="yes"/>
      <point x="-308" y="-294"/>
      <point x="-267" y="-330"/>
    </contour>
    <contour>
      <point x="-2" y="-525" type="curve" smooth="yes"/>
      <point x="62" y="-525"/>
      <point x="103" y="-486"/>
      <point x="103" y="-433" type="curve" smooth="yes"/>
      <point x="103" y="-380"/>
      <point x="62" y="-342"/>
      <point x="-2" y="-342" type="curve" smooth="yes"/>
      <point x="-68" y="-342"/>
      <point x="-110" y="-380"/>
      <point x="-110" y="-434" type="curve" smooth="yes"/>
      <point x="-110" y="-489"/>
      <point x="-68" y="-525"/>
    </contour>
    <contour>
      <point x="198" y="-718" type="curve" smooth="yes"/>
      <point x="265" y="-718"/>
      <point x="308" y="-680"/>
      <point x="308" y="-628" type="curve" smooth="yes"/>
      <point x="308" y="-575"/>
      <point x="265" y="-536"/>
      <point x="199" y="-536" type="curve" smooth="yes"/>
      <point x="135" y="-536"/>
      <point x="91" y="-571"/>
      <point x="91" y="-628" type="curve" smooth="yes"/>
      <point x="91" y="-685"/>
      <point x="131" y="-718"/>
    </contour>
  </outline>
</glyph>
<glyph name="dagesh-hb" format="2">
  <unicode hex="05BC"/>
  <note>
afii57807
</note>
  <anchor x="1" y="651" name="_center"/>
  <outline>
    <contour>
      <point x="-3" y="559" type="curve" smooth="yes"/>
      <point x="64" y="559"/>
      <point x="109" y="596"/>
      <point x="109" y="650" type="curve" smooth="yes"/>
      <point x="109" y="703"/>
      <point x="64" y="742"/>
      <point x="-1" y="742" type="curve" smooth="yes"/>
      <point x="-67" y="742"/>
      <point x="-109" y="707"/>
      <point x="-109" y="650" type="curve" smooth="yes"/>
      <point x="-109" y="592"/>
      <point x="-70" y="559"/>
    </contour>
  </outline>
</glyph>
<glyph name="siluqleft-hb" format="2">
  <unicode hex="05BD"/>
  <note>
afii57839
</note>
  <anchor x="0" y="-146" name="_bottom"/>
  <outline>
    <contour>
      <point x="-56" y="-537" type="line"/>
      <point x="56" y="-537" type="line"/>
      <point x="56" y="-166" type="line"/>
      <point x="-56" y="-166" type="line"/>
    </contour>
  </outline>
</glyph>
<glyph name="bet-hb" format="2">
  <advance width="962"/>
  <unicode hex="05D1"/>
  <note>
afii57665
</note>
  <anchor x="483" y="0" name="bottom"/>
  <anchor x="1" y="0" name="bottomleft"/>
  <anchor x="313" y="623" name="center"/>
  <anchor x="483" y="1127" name="top"/>
  <anchor x="1" y="1127" name="topleft"/>
  <outline>
    <contour>
      <point x="60" y="0" type="line"/>
      <point x="951" y="0" type="line"/>
      <point x="951" y="271" type="line"/>
      <point x="797" y="271" type="line"/>
      <point x="797" y="823" type="line" smooth="yes"/>
      <point x="797" y="911"/>
      <point x="797" y="1076"/>
      <point x="779" y="1113" type="curve" smooth="yes"/>
      <point x="750" y="1174"/>
      <point x="715" y="1223"/>
      <point x="630" y="1261" type="curve" smooth="yes"/>
      <point x="563" y="1291"/>
      <point x="472" y="1310"/>
      <point x="313" y="1310" type="curve" smooth="yes"/>
      <point x="224" y="1310"/>
      <point x="145" y="1304"/>
      <point x="60" y="1291" type="curve"/>
      <point x="60" y="1018" type="line"/>
      <point x="140" y="1034"/>
      <point x="183" y="1037"/>
      <point x="295" y="1037" type="curve" smooth="yes"/>
      <point x="305" y="1037"/>
      <point x="333" y="1035"/>
      <point x="352" y="1031" type="curve" smooth="yes"/>
      <point x="434" y="1014"/>
      <point x="455" y="939"/>
      <point x="455" y="824" type="curve" smooth="yes"/>
      <point x="455" y="271" type="line"/>
      <point x="60" y="271" type="line"/>
    </contour>
  </outline>
</glyph>
<glyph name="dalet-hb" format="2">
  <advance width="915"/>
  <unicode hex="05D3"/>
  <note>
afii57667
</note>
  <anchor x="452" y="0" name="bottom"/>
  <anchor x="15" y="0" name="bottomleft"/>
  <anchor x="316" y="621" name="center"/>
  <anchor x="452" y="1127" name="top"/>
  <anchor x="15" y="1127" name="topleft"/>
  <outline>
    <contour>
      <point x="433" y="0" type="line"/>
      <point x="773" y="0" type="line"/>
      <point x="773" y="772" type="line" smooth="yes"/>
      <point x="773" y="868"/>
      <point x="795" y="939"/>
      <point x="837" y="988" type="curve" smooth="yes"/>
      <point x="859" y="1014"/>
      <point x="882" y="1025"/>
      <point x="897" y="1031" type="curve"/>
      <point x="897" y="1290" type="line"/>
      <point x="27" y="1290" type="line"/>
      <point x="27" y="1019" type="line"/>
      <point x="591" y="1019" type="line"/>
      <point x="553" y="1001"/>
      <point x="519" y="976"/>
      <point x="488" y="944" type="curve" smooth="yes"/>
      <point x="458" y="914"/>
      <point x="433" y="847"/>
      <point x="433" y="783" type="curve" smooth="yes"/>
    </contour>
  </outline>
</glyph>
<glyph name="he-hb" format="2">
  <advance width="1082"/>
  <unicode hex="05D4"/>
  <note>
afii57668
</note>
  <anchor x="538" y="0" name="bottom"/>
  <anchor x="12" y="0" name="bottomleft"/>
  <anchor x="544" y="563" name="center"/>
  <anchor x="538" y="1127" name="top"/>
  <anchor x="12" y="1127" name="topleft"/>
  <outline>
    <contour>
      <point x="656" y="0" type="line"/>
      <point x="996" y="0" type="line"/>
      <point x="996" y="823" type="line" smooth="yes"/>
      <point x="996" y="1017"/>
      <point x="996" y="1137"/>
      <point x="894" y="1220" type="curve" smooth="yes"/>
      <point x="873" y="1237"/>
      <point x="848" y="1252"/>
      <point x="818" y="1266" type="curve" smooth="yes"/>
      <point x="755" y="1296"/>
      <point x="685" y="1310"/>
      <point x="514" y="1310" type="curve" smooth="yes"/>
      <point x="446" y="1310"/>
      <point x="379" y="1309"/>
      <point x="288" y="1296" type="curve" smooth="yes"/>
      <point x="195" y="1283"/>
      <point x="128" y="1272"/>
      <point x="91" y="1257" type="curve"/>
      <point x="91" y="991" type="line"/>
      <point x="280" y="1025"/>
      <point x="375" y="1037"/>
      <point x="485" y="1037" type="curve" smooth="yes"/>
      <point x="534" y="1037"/>
      <point x="563" y="1033"/>
      <point x="582" y="1024" type="curve" smooth="yes"/>
      <point x="638" y="997"/>
      <point x="656" y="927"/>
      <point x="656" y="824" type="curve" smooth="yes"/>
    </contour>
    <contour>
      <point x="91" y="0" type="line"/>
      <point x="432" y="0" type="line"/>
      <point x="432" y="828" type="line"/>
      <point x="91" y="828" type="line"/>
    </contour>
  </outline>
</glyph>
<glyph name="het-hb" format="2">
  <advance width="1082"/>
  <unicode hex="05D7"/>
  <note>
afii57671
</note>
  <anchor x="538" y="0" name="bottom"/>
  <anchor x="12" y="0" name="bottomleft"/>
  <anchor x="538" y="563" name="center"/>
  <anchor x="538" y="1127" name="top"/>
  <anchor x="12" y="1127" name="topleft"/>
  <outline>
    <contour>
      <point x="91" y="0" type="line"/>
      <point x="432" y="0" type="line"/>
      <point x="432" y="1029" type="line"/>
      <point x="458" y="1034"/>
      <point x="478" y="1037"/>
      <point x="504" y="1037" type="curve" smooth="yes"/>
      <point x="567" y="1037"/>
      <point x="603" y="1020"/>
      <point x="624" y="990" type="curve" smooth="yes"/>
      <point x="647" y="957"/>
      <point x="656" y="898"/>
      <point x="656" y="824" type="curve" smooth="yes"/>
      <point x="656" y="0" type="line"/>
      <point x="996" y="0" type="line"/>
      <point x="996" y="823" type="line" smooth="yes"/>
      <point x="996" y="956"/>
      <point x="989" y="1061"/>
      <point x="947" y="1142" type="curve" smooth="yes"/>
      <point x="933" y="1169"/>
      <point x="915" y="1193"/>
      <point x="892" y="1215" type="curve" smooth="yes"/>
      <point x="826" y="1278"/>
      <point x="725" y="1310"/>
      <point x="537" y="1310" type="curve" smooth="yes"/>
      <point x="452" y="1310"/>
      <point x="356" y="1303"/>
      <point x="261" y="1290" type="curve" smooth="yes"/>
      <point x="203" y="1282"/>
      <point x="145" y="1271"/>
      <point x="91" y="1257" type="curve"/>
    </contour>
  </outline>
</glyph>
<glyph name="finalmem-hb" format="2">
  <advance width="1082"/>
  <unicode hex="05DD"/>
  <note>
afii57677
</note>
  <anchor x="538" y="0" name="bottom"/>
  <anchor x="12" y="0" name="bottomleft"/>
  <anchor x="538" y="563" name="center"/>
  <anchor x="538" y="1127" name="top"/>
  <anchor x="12" y="1127" name="topleft"/>
  <outline>
    <contour>
      <point x="91" y="0" type="line"/>
      <point x="996" y="0" type="line"/>
      <point x="996" y="818" type="line" smooth="yes"/>
      <point x="996" y="920"/>
      <point x="990" y="988"/>
      <point x="979" y="1042" type="curve" smooth="yes"/>
      <point x="959" y="1147"/>
      <point x="891" y="1230"/>
      <point x="794" y="1271" type="curve" smooth="yes"/>
      <point x="735" y="1296"/>
      <point x="654" y="1310"/>
      <point x="506" y="1310" type="curve" smooth="yes"/>
      <point x="404" y="1310"/>
      <point x="291" y="1303"/>
      <point x="208" y="1295" type="curve" smooth="yes"/>
      <point x="147" y="1290"/>
      <point x="102" y="1283"/>
      <point x="91" y="1278" type="curve"/>
    </contour>
    <contour>
      <point x="432" y="271" type="line"/>
      <point x="432" y="1036" type="line"/>
      <point x="445" y="1037"/>
      <point x="449" y="1037"/>
      <point x="502" y="1037" type="curve" smooth="yes"/>
      <point x="522" y="1037"/>
      <point x="548" y="1035"/>
      <point x="574" y="1022" type="curve" smooth="yes"/>
      <point x="600" y="1009"/>
      <point x="625" y="987"/>
      <point x="638" y="953" type="curve" smooth="yes"/>
      <point x="651" y="918"/>
      <point x="656" y="861"/>
      <point x="656" y="819" type="curve" smooth="yes"/>
      <point x="656" y="271" type="line"/>
    </contour>
  </outline>
</glyph>
<glyph name="samekh-hb" format="2">
  <advance width="1061"/>
  <unicode hex="05E1"/>
  <note>
afii57681
</note>
  <anchor x="531" y="0" name="bottom"/>
  <anchor x="19" y="0" name="bottomleft"/>
  <anchor x="531" y="633" name="center"/>
  <anchor x="531" y="1127" name="top"/>
  <anchor x="19" y="1127" name="topleft"/>
  <outline>
    <contour>
      <point x="537" y="-20" type="curve" smooth="yes"/>
      <point x="619" y="-20"/>
      <point x="690" y="1"/>
      <point x="750" y="39" type="curve" smooth="yes"/>
      <point x="835" y="93"/>
      <point x="898" y="181"/>
      <point x="939" y="290" type="curve" smooth="yes"/>
      <point x="978" y="393"/>
      <point x="997" y="516"/>
      <point x="997" y="645" type="curve" smooth="yes"/>
      <point x="997" y="796"/>
      <point x="973" y="920"/>
      <point x="936" y="1011" type="curve" smooth="yes"/>
      <point x="898" y="1104"/>
      <point x="844" y="1176"/>
      <point x="797" y="1219" type="curve" smooth="yes"/>
      <point x="738" y="1273"/>
      <point x="660" y="1310"/>
      <point x="576" y="1310" type="curve" smooth="yes"/>
      <point x="287" y="1310"/>
      <point x="174" y="1297"/>
      <point x="73" y="1276" type="curve"/>
      <point x="73" y="1009" type="line"/>
      <point x="208" y="1020" type="line"/>
      <point x="210" y="1010" type="line"/>
      <point x="146" y="969"/>
      <point x="64" y="818"/>
      <point x="64" y="670" type="curve" smooth="yes"/>
      <point x="64" y="515"/>
      <point x="85" y="368"/>
      <point x="136" y="250" type="curve" smooth="yes"/>
      <point x="187" y="134"/>
      <point x="266" y="45"/>
      <point x="382" y="5" type="curve" smooth="yes"/>
      <point x="428" y="-11"/>
      <point x="480" y="-20"/>
    </contour>
    <contour>
      <point x="527" y="252" type="curve" smooth="yes"/>
      <point x="483" y="252"/>
      <point x="457" y="276"/>
      <point x="441" y="328" type="curve" smooth="yes"/>
      <point x="424" y="382"/>
      <point x="411" y="494"/>
      <point x="411" y="660" type="curve" smooth="yes"/>
      <point x="411" y="826"/>
      <point x="423" y="937"/>
      <point x="471" y="1027" type="curve"/>
      <point x="499" y="1035"/>
      <point x="516" y="1038"/>
      <point x="550" y="1038" type="curve" smooth="yes"/>
      <point x="569" y="1038"/>
      <point x="599" y="1007"/>
      <point x="617" y="961" type="curve" smooth="yes"/>
      <point x="642" y="897"/>
      <point x="652" y="782"/>
      <point x="652" y="637" type="curve" smooth="yes"/>
      <point x="652" y="525"/>
      <point x="646" y="405"/>
      <point x="618" y="330" type="curve" smooth="yes"/>
      <point x="597" y="274"/>
      <point x="568" y="252"/>
    </contour>
  </outline>
</glyph>
<glyph name="finalpe-hb" format="2">
  <advance width="1030"/>
  <unicode hex="05E3"/>
  <note>
afii57683
</note>
  <anchor x="508" y="0" name="bottom"/>
  <anchor x="5" y="0" name="bottomleft"/>
  <anchor x="482" y="875" name="center"/>
  <anchor x="508" y="1127" name="top"/>
  <anchor x="5" y="1127" name="topleft"/>
  <outline>
    <contour>
      <point x="604" y="-492" type="line"/>
      <point x="944" y="-492" type="line"/>
      <point x="944" y="647" type="line" smooth="yes"/>
      <point x="944" y="791"/>
      <point x="925" y="918"/>
      <point x="879" y="1023" type="curve" smooth="yes"/>
      <point x="845" y="1101"/>
      <point x="792" y="1173"/>
      <point x="737" y="1218" type="curve" smooth="yes"/>
      <point x="686" y="1260"/>
      <point x="595" y="1310"/>
      <point x="473" y="1310" type="curve" smooth="yes"/>
      <point x="404" y="1310"/>
      <point x="335" y="1294"/>
      <point x="274" y="1267" type="curve" smooth="yes"/>
      <point x="219" y="1242"/>
      <point x="162" y="1201"/>
      <point x="125" y="1157" type="curve" smooth="yes"/>
      <point x="64" y="1086"/>
      <point x="21" y="986"/>
      <point x="21" y="853" type="curve" smooth="yes"/>
      <point x="21" y="717"/>
      <point x="67" y="625"/>
      <point x="100" y="581" type="curve" smooth="yes"/>
      <point x="152" y="512"/>
      <point x="252" y="449"/>
      <point x="390" y="430" type="curve" smooth="yes"/>
      <point x="463" y="420" type="line"/>
      <point x="529" y="688" type="line"/>
      <point x="481" y="698" type="line" smooth="yes"/>
      <point x="432" y="708"/>
      <point x="419" y="729"/>
      <point x="402" y="756" type="curve" smooth="yes"/>
      <point x="388" y="778"/>
      <point x="371" y="805"/>
      <point x="371" y="868" type="curve" smooth="yes"/>
      <point x="371" y="925"/>
      <point x="379" y="979"/>
      <point x="407" y="1010" type="curve" smooth="yes"/>
      <point x="423" y="1028"/>
      <point x="445" y="1038"/>
      <point x="475" y="1038" type="curve" smooth="yes"/>
      <point x="503" y="1038"/>
      <point x="548" y="1025"/>
      <point x="577" y="947" type="curve" smooth="yes"/>
      <point x="599" y="889"/>
      <point x="604" y="810"/>
      <point x="604" y="647" type="curve" smooth="yes"/>
    </contour>
  </outline>
</glyph>
<glyph name="pe-hb" format="2">
  <advance width="1051"/>
  <unicode hex="05E4"/>
  <note>
afii57684
</note>
  <anchor x="540" y="0" name="bottom"/>
  <anchor x="48" y="0" name="bottomleft"/>
  <anchor x="522" y="865" name="center"/>
  <anchor x="540" y="1127" name="top"/>
  <anchor x="48" y="1127" name="topleft"/>
  <outline>
    <contour>
      <point x="506" y="-20" type="curve" smooth="yes"/>
      <point x="654" y="-20"/>
      <point x="734" y="30"/>
      <point x="781" y="70" type="curve" smooth="yes"/>
      <point x="833" y="114"/>
      <point x="890" y="186"/>
      <point x="927" y="280" type="curve" smooth="yes"/>
      <point x="963" y="371"/>
      <point x="987" y="498"/>
      <point x="987" y="644" type="curve" smooth="yes"/>
      <point x="987" y="801"/>
      <point x="959" y="934"/>
      <point x="925" y="1017" type="curve" smooth="yes"/>
      <point x="886" y="1111"/>
      <point x="822" y="1184"/>
      <point x="773" y="1223" type="curve" smooth="yes"/>
      <point x="720" y="1265"/>
      <point x="631" y="1310"/>
      <point x="512" y="1310" type="curve" smooth="yes"/>
      <point x="411" y="1310"/>
      <point x="301" y="1278"/>
      <point x="215" y="1207" type="curve" smooth="yes"/>
      <point x="113" y="1123"/>
      <point x="64" y="999"/>
      <point x="64" y="854" type="curve" smooth="yes"/>
      <point x="64" y="710"/>
      <point x="112" y="603"/>
      <point x="159" y="554" type="curve" smooth="yes"/>
      <point x="183" y="529"/>
      <point x="222" y="503"/>
      <point x="251" y="488" type="curve" smooth="yes"/>
      <point x="294" y="466"/>
      <point x="379" y="436"/>
      <point x="433" y="429" type="curve" smooth="yes"/>
      <point x="506" y="420" type="line"/>
      <point x="572" y="688" type="line"/>
      <point x="524" y="698" type="line" smooth="yes"/>
      <point x="465" y="710"/>
      <point x="432" y="757"/>
      <point x="423" y="790" type="curve" smooth="yes"/>
      <point x="417" y="811"/>
      <point x="414" y="858"/>
      <point x="414" y="868" type="curve" smooth="yes"/>
      <point x="414" y="923"/>
      <point x="420" y="971"/>
      <point x="442" y="1002" type="curve" smooth="yes"/>
      <point x="458" y="1025"/>
      <point x="483" y="1038"/>
      <point x="519" y="1038" type="curve" smooth="yes"/>
      <point x="549" y="1038"/>
      <point x="582" y="1026"/>
      <point x="607" y="962" type="curve" smooth="yes"/>
      <point x="617" y="936"/>
      <point x="625" y="905"/>
      <point x="630" y="862" type="curve" smooth="yes"/>
      <point x="638" y="807"/>
      <point x="641" y="733"/>
      <point x="641" y="631" type="curve" smooth="yes"/>
      <point x="641" y="576"/>
      <point x="640" y="504"/>
      <point x="639" y="451" type="curve" smooth="yes"/>
      <point x="638" y="413"/>
      <point x="633" y="379"/>
      <point x="624" y="349" type="curve" smooth="yes"/>
      <point x="606" y="289"/>
      <point x="576" y="252"/>
      <point x="548" y="252" type="curve" smooth="yes"/>
      <point x="439" y="252"/>
      <point x="338" y="266"/>
      <point x="181" y="293" type="curve"/>
      <point x="181" y="12" type="line"/>
      <point x="219" y="4" type="line" smooth="yes"/>
      <point x="257" y="-4"/>
      <point x="422" y="-20"/>
    </contour>
  </outline>
</glyph>
<glyph name="shin-hb" format="2">
  <advance width="1395"/>
  <unicode hex="05E9"/>
  <note>
afii57689
</note>
  <anchor x="700" y="0" name="bottom"/>
  <anchor x="21" y="0" name="bottomleft"/>
  <anchor x="778" y="412" name="center"/>
  <anchor x="700" y="1126" name="top"/>
  <anchor x="321" y="1347" name="topleft"/>
  <anchor x="1284" y="1127" name="topright"/>
  <outline>
    <contour>
      <point x="132" y="0" type="line"/>
      <point x="605" y="0" type="line" smooth="yes"/>
      <point x="747" y="0"/>
      <point x="888" y="28"/>
      <point x="989" y="82" type="curve" smooth="yes"/>
      <point x="1058" y="119"/>
      <point x="1129" y="179"/>
      <point x="1155" y="204" type="curve" smooth="yes"/>
      <point x="1262" y="308"/>
      <point x="1315" y="501"/>
      <point x="1330" y="701" type="curve" smooth="yes"/>
      <point x="1375" y="1290" type="line"/>
      <point x="1033" y="1290" type="line"/>
      <point x="989" y="699" type="line" smooth="yes"/>
      <point x="979" y="567"/>
      <point x="948" y="472"/>
      <point x="895" y="403" type="curve" smooth="yes"/>
      <point x="828" y="316"/>
      <point x="730" y="270"/>
      <point x="605" y="270" type="curve" smooth="yes"/>
      <point x="454" y="270" type="line"/>
      <point x="442" y="423" type="line"/>
      <point x="455" y="423"/>
      <point x="467" y="422"/>
      <point x="480" y="422" type="curve" smooth="yes"/>
      <point x="633" y="422"/>
      <point x="722" y="468"/>
      <point x="790" y="546" type="curve" smooth="yes"/>
      <point x="831" y="595"/>
      <point x="850" y="641"/>
      <point x="855" y="712" type="curve" smooth="yes"/>
      <point x="897" y="1290" type="line"/>
      <point x="558" y="1290" type="line"/>
      <point x="524" y="839" type="line" smooth="yes"/>
      <point x="519" y="779"/>
      <point x="518" y="734"/>
      <point x="506" y="704" type="curve" smooth="yes"/>
      <point x="494" y="672"/>
      <point x="470" y="654"/>
      <point x="424" y="656" type="curve"/>
      <point x="371" y="1290" type="line"/>
      <point x="30" y="1290" type="line"/>
    </contour>
  </outline>
</glyph>
<glyph name="dasiaoxia" format="2">
  <advance width="884"/>
  <unicode hex="1FDE"/>
  <anchor x="442" y="1127" name="_top"/>
  <anchor x="778" y="1462" name="_topleft"/>
  <anchor x="442" y="1483" name="top"/>
  <outline>
    <contour>
      <point x="434" y="1138" type="line"/>
      <point x="588" y="1138" type="line"/>
      <point x="728" y="1302"/>
      <point x="790" y="1375"/>
      <point x="830" y="1445" type="curve"/>
      <point x="830" y="1465" type="line"/>
      <point x="521" y="1465" type="line"/>
      <point x="506" y="1412"/>
      <point x="454" y="1235"/>
      <point x="434" y="1167" type="curve"/>
    </contour>
    <contour>
      <point x="220" y="1128" type="curve" smooth="yes"/>
      <point x="297" y="1128"/>
      <point x="352" y="1154"/>
      <point x="352" y="1213" type="curve" smooth="yes"/>
      <point x="352" y="1247"/>
      <point x="333" y="1266"/>
      <point x="292" y="1278" type="curve" smooth="yes"/>
      <point x="248" y="1291"/>
      <point x="228" y="1297"/>
      <point x="228" y="1318" type="curve" smooth="yes"/>
      <point x="228" y="1332"/>
      <point x="236" y="1345"/>
      <point x="259" y="1358" type="curve" smooth="yes"/>
      <point x="291" y="1376"/>
      <point x="324" y="1386"/>
      <point x="371" y="1400" type="curve"/>
      <point x="371" y="1483" type="line"/>
      <point x="170" y="1458"/>
      <point x="54" y="1382"/>
      <point x="54" y="1262" type="curve" smooth="yes"/>
      <point x="54" y="1170"/>
      <point x="121" y="1128"/>
    </contour>
  </outline>
</glyph>
<glyph name="foursuperior" format="2">
  <advance width="720"/>
  <unicode hex="2074"/>
  <note>
foursuperior
</note>
  <outline>
    <contour>
      <point x="355" y="586" type="line"/>
      <point x="599" y="586" type="line"/>
      <point x="599" y="723" type="line"/>
      <point x="714" y="723" type="line"/>
      <point x="714" y="918" type="line"/>
      <point x="599" y="918" type="line"/>
      <point x="599" y="1468" type="line"/>
      <point x="356" y="1468" type="line"/>
      <point x="6" y="905" type="line"/>
      <point x="6" y="723" type="line"/>
      <point x="355" y="723" type="line"/>
    </contour>
    <contour>
      <point x="188" y="918" type="line"/>
      <point x="200" y="930"/>
      <point x="230" y="972"/>
      <point x="276" y="1048" type="curve" smooth="yes"/>
      <point x="288" y="1068"/>
      <point x="338" y="1174"/>
      <point x="359" y="1233" type="curve"/>
      <point x="356" y="1158"/>
      <point x="355" y="1093"/>
      <point x="355" y="1040" type="curve" smooth="yes"/>
      <point x="355" y="918" type="line"/>
    </contour>
  </outline>
</glyph>
<glyph name="trademark" format="2">
  <advance width="1329"/>
  <unicode hex="2122"/>
  <note>
trademark
</note>
  <outline>
    <contour>
      <point x="528" y="741" type="line"/>
      <point x="706" y="741" type="line"/>
      <point x="706" y="1057" type="line" smooth="yes"/>
      <point x="706" y="1118"/>
      <point x="705" y="1180"/>
      <point x="703" y="1241" type="curve"/>
      <point x="709" y="1241" type="line"/>
      <point x="788" y="741" type="line"/>
      <point x="966" y="741" type="line"/>
      <point x="1045" y="1241" type="line"/>
      <point x="1051" y="1241" type="line"/>
      <point x="1049" y="1180"/>
      <point x="1048" y="1118"/>
      <point x="1048" y="1057" type="curve" smooth="yes"/>
      <point x="1048" y="741" type="line"/>
      <point x="1226" y="741" type="line"/>
      <point x="1226" y="1462" type="line"/>
      <point x="934" y="1462" type="line"/>
      <point x="877" y="1026" type="line"/>
      <point x="820" y="1462" type="line"/>
      <point x="528" y="1462" type="line"/>
    </contour>
    <contour>
      <point x="160" y="741" type="line"/>
      <point x="345" y="741" type="line"/>
      <point x="345" y="1294" type="line"/>
      <point x="492" y="1294" type="line"/>
      <point x="492" y="1462" type="line"/>
      <point x="11" y="1462" type="line"/>
      <point x="11" y="1294" type="line"/>
      <point x="160" y="1294" type="line"/>
    </contour>
  </outline>
</glyph>
<glyph name="summation" format="2">
  <advance width="1339"/>
  <unicode hex="2211"/>
  <note>
summation
</note>
  <outline>
    <contour>
      <point x="27" y="-450" type="line"/>
      <point x="1349" y="-450" type="line"/>
      <point x="1349" y="-155" type="line"/>
      <point x="498" y="-155" type="line"/>
      <point x="977" y="554" type="line"/>
      <point x="525" y="1167" type="line"/>
      <point x="1290" y="1167" type="line"/>
      <point x="1290" y="1462" type="line"/>
      <point x="44" y="1462" type="line"/>
      <point x="44" y="1270" type="line"/>
      <point x="576" y="545" type="line"/>
      <point x="27" y="-252" type="line"/>
    </contour>
  </outline>
</glyph>
<glyph name="approxequal" format="2">
  <advance width="960"/>
  <unicode hex="2248"/>
  <note>
approxequal
</note>
  <outline>
    <contour>
      <point x="80" y="759" type="line"/>
      <point x="159" y="840"/>
      <point x="211" y="869"/>
      <point x="280" y="869" type="curve" smooth="yes"/>
      <point x="338" y="869"/>
      <point x="379" y="850"/>
      <point x="446" y="819" type="curve" smooth="yes"/>
      <point x="528" y="781"/>
      <point x="596" y="760"/>
      <point x="664" y="760" type="curve" smooth="yes"/>
      <point x="756" y="760"/>
      <point x="830" y="799"/>
      <point x="879" y="860" type="curve"/>
      <point x="879" y="1106" type="line"/>
      <point x="812" y="1035"/>
      <point x="744" y="995"/>
      <point x="700" y="995" type="curve" smooth="yes"/>
      <point x="624" y="995"/>
      <point x="624" y="995"/>
      <point x="509" y="1045" type="curve" smooth="yes"/>
      <point x="384" y="1099"/>
      <point x="358" y="1106"/>
      <point x="306" y="1106" type="curve" smooth="yes"/>
      <point x="216" y="1106"/>
      <point x="154" y="1079"/>
      <point x="80" y="1005" type="curve"/>
    </contour>
    <contour>
      <point x="80" y="386" type="line"/>
      <point x="159" y="467"/>
      <point x="211" y="496"/>
      <point x="280" y="496" type="curve" smooth="yes"/>
      <point x="338" y="496"/>
      <point x="379" y="477"/>
      <point x="446" y="446" type="curve" smooth="yes"/>
      <point x="528" y="408"/>
      <point x="596" y="387"/>
      <point x="664" y="387" type="curve" smooth="yes"/>
      <point x="756" y="387"/>
      <point x="830" y="426"/>
      <point x="879" y="487" type="curve"/>
      <point x="879" y="733" type="line"/>
      <point x="812" y="662"/>
      <point x="744" y="622"/>
      <point x="700" y="622" type="curve" smooth="yes"/>
      <point x="624" y="622"/>
      <point x="624" y="622"/>
      <point x="509" y="672" type="curve" smooth="yes"/>
      <point x="384" y="726"/>
      <point x="358" y="733"/>
      <point x="306" y="733" type="curve" smooth="yes"/>
      <point x="216" y="733"/>
      <point x="154" y="706"/>
      <point x="80" y="632" type="curve"/>
    </contour>
  </outline>
</glyph>
<glyph name="objectReplacementCharacter" format="2">
  <advance width="2028"/>
  <unicode hex="FFFC"/>
  <note>
uniFFFC
</note>
  <outline>
    <contour>
      <point x="590" y="328" type="curve" smooth="yes"/>
      <point x="759" y="328"/>
      <point x="852" y="436"/>
      <point x="852" y="629" type="curve" smooth="yes"/>
      <point x="852" y="825"/>
      <point x="758" y="930"/>
      <point x="590" y="930" type="curve" smooth="yes"/>
      <point x="421" y="930"/>
      <point x="328" y="824"/>
      <point x="328" y="629" type="curve" smooth="yes"/>
      <point x="328" y="436"/>
      <point x="421" y="328"/>
    </contour>
    <contour>
      <point x="72" y="-383" type="line"/>
      <point x="375" y="-383" type="line"/>
      <point x="375" y="-274" type="line"/>
      <point x="182" y="-274" type="line"/>
      <point x="182" y="-80" type="line"/>
      <point x="72" y="-80" type="line"/>
    </contour>
    <contour>
      <point x="72" y="39" type="line"/>
      <point x="182" y="39" type="line"/>
      <point x="182" y="309" type="line"/>
      <point x="72" y="309" type="line"/>
    </contour>
    <contour>
      <point x="496" y="-383" type="line"/>
      <point x="766" y="-383" type="line"/>
      <point x="766" y="-274" type="line"/>
      <point x="496" y="-274" type="line"/>
    </contour>
    <contour>
      <point x="72" y="430" type="line"/>
      <point x="182" y="430" type="line"/>
      <point x="182" y="702" type="line"/>
      <point x="72" y="702" type="line"/>
    </contour>
    <contour>
      <point x="887" y="-383" type="line"/>
      <point x="1159" y="-383" type="line"/>
      <point x="1159" y="-274" type="line"/>
      <point x="887" y="-274" type="line"/>
    </contour>
    <contour>
      <point x="1278" y="-383" type="line"/>
      <point x="1550" y="-383" type="line"/>
      <point x="1550" y="-274" type="line"/>
      <point x="1278" y="-274" type="line"/>
    </contour>
    <contour>
      <point x="72" y="823" type="line"/>
      <point x="182" y="823" type="line"/>
      <point x="182" y="1094" type="line"/>
      <point x="72" y="1094" type="line"/>
    </contour>
    <contour>
      <point x="590" y="432" type="curve" smooth="yes"/>
      <point x="500" y="432"/>
      <point x="455" y="498"/>
      <point x="455" y="629" type="curve" smooth="yes"/>
      <point x="455" y="760"/>
      <point x="500" y="825"/>
      <point x="590" y="825" type="curve" smooth="yes"/>
      <point x="680" y="825"/>
      <point x="725" y="760"/>
      <point x="725" y="629" type="curve" smooth="yes"/>
      <point x="725" y="498"/>
      <point x="680" y="432"/>
    </contour>
    <contour>
      <point x="1669" y="-383" type="line"/>
      <point x="1972" y="-383" type="line"/>
      <point x="1972" y="-80" type="line"/>
      <point x="1864" y="-80" type="line"/>
      <point x="1864" y="-274" type="line"/>
      <point x="1669" y="-274" type="line"/>
    </contour>
    <contour>
      <point x="72" y="1214" type="line"/>
      <point x="182" y="1214" type="line"/>
      <point x="182" y="1407" type="line"/>
      <point x="375" y="1407" type="line"/>
      <point x="375" y="1518" type="line"/>
      <point x="72" y="1518" type="line"/>
    </contour>
    <contour>
      <point x="1059" y="438" type="line"/>
      <point x="1059" y="592" type="line"/>
      <point x="1129" y="592" type="line" smooth="yes"/>
      <point x="1189" y="592"/>
      <point x="1219" y="567"/>
      <point x="1219" y="518" type="curve" smooth="yes"/>
      <point x="1219" y="469"/>
      <point x="1198" y="438"/>
      <point x="1133" y="438" type="curve" smooth="yes"/>
    </contour>
    <contour>
      <point x="936" y="336" type="line"/>
      <point x="1143" y="336" type="line" smooth="yes"/>
      <point x="1268" y="336"/>
      <point x="1346" y="398"/>
      <point x="1346" y="506" type="curve" smooth="yes"/>
      <point x="1346" y="574"/>
      <point x="1321" y="619"/>
      <point x="1239" y="640" type="curve"/>
      <point x="1239" y="648" type="line"/>
      <point x="1295" y="659"/>
      <point x="1329" y="707"/>
      <point x="1329" y="772" type="curve" smooth="yes"/>
      <point x="1329" y="883"/>
      <point x="1253" y="922"/>
      <point x="1108" y="922" type="curve" smooth="yes"/>
      <point x="936" y="922" type="line"/>
    </contour>
    <contour>
      <point x="1059" y="690" type="line"/>
      <point x="1059" y="819" type="line"/>
      <point x="1118" y="819" type="line" smooth="yes"/>
      <point x="1181" y="819"/>
      <point x="1206" y="801"/>
      <point x="1206" y="756" type="curve" smooth="yes"/>
      <point x="1206" y="713"/>
      <point x="1187" y="690"/>
      <point x="1124" y="690" type="curve" smooth="yes"/>
    </contour>
    <contour>
      <point x="1864" y="39" type="line"/>
      <point x="1972" y="39" type="line"/>
      <point x="1972" y="309" type="line"/>
      <point x="1864" y="309" type="line"/>
    </contour>
    <contour>
      <point x="496" y="1407" type="line"/>
      <point x="766" y="1407" type="line"/>
      <point x="766" y="1518" type="line"/>
      <point x="496" y="1518" type="line"/>
    </contour>
    <contour>
      <point x="1479" y="330" type="curve" smooth="yes"/>
      <point x="1603" y="330"/>
      <point x="1677" y="397"/>
      <point x="1677" y="524" type="curve" smooth="yes"/>
      <point x="1677" y="922" type="line"/>
      <point x="1552" y="922" type="line"/>
      <point x="1552" y="520" type="line" smooth="yes"/>
      <point x="1552" y="463"/>
      <point x="1523" y="434"/>
      <point x="1466" y="434" type="curve" smooth="yes"/>
      <point x="1447" y="434"/>
      <point x="1425" y="437"/>
      <point x="1399" y="442" type="curve"/>
      <point x="1399" y="340" type="line"/>
      <point x="1418" y="333"/>
      <point x="1444" y="330"/>
    </contour>
    <contour>
      <point x="1864" y="430" type="line"/>
      <point x="1972" y="430" type="line"/>
      <point x="1972" y="702" type="line"/>
      <point x="1864" y="702" type="line"/>
    </contour>
    <contour>
      <point x="887" y="1407" type="line"/>
      <point x="1159" y="1407" type="line"/>
      <point x="1159" y="1518" type="line"/>
      <point x="887" y="1518" type="line"/>
    </contour>
    <contour>
      <point x="1864" y="823" type="line"/>
      <point x="1972" y="823" type="line"/>
      <point x="1972" y="1094" type="line"/>
      <point x="1864" y="1094" type="line"/>
    </contour>
    <contour>
      <point x="1278" y="1407" type="line"/>
      <point x="1550" y="1407" type="line"/>
      <point x="1550" y="1518" type="line"/>
      <point x="1278" y="1518" type="line"/>
    </contour>
    <contour>
      <point x="1864" y="1214" type="line"/>
      <point x="1972" y="1214" type="line"/>
      <point x="1972" y="1518" type="line"/>
      <point x="1669" y="1518" type="line"/>
      <point x="1669" y="1407" type="line"/>
      <point x="1864" y="1407" type="line"/>
    </contour>
  </outline>
</glyph>
<glyph name="g888" format="2">
  <note>
g888
</note>
  <anchor x="-779" y="1124" name="_top"/>
  <outline>
    <contour>
      <point x="-1191" y="1238" type="line"/>
      <point x="-999" y="1238" type="line"/>
      <point x="-924" y="1285"/>
      <point x="-851" y="1339"/>
      <point x="-779" y="1397" type="curve"/>
      <point x="-694" y="1331"/>
      <point x="-620" y="1277"/>
      <point x="-559" y="1238" type="curve"/>
      <point x="-368" y="1238" type="line"/>
      <point x="-368" y="1268" type="line"/>
      <point x="-445" y="1354"/>
      <point x="-520" y="1451"/>
      <point x="-596" y="1557" type="curve"/>
      <point x="-961" y="1557" type="line"/>
      <point x="-1002" y="1500"/>
      <point x="-1119" y="1350"/>
      <point x="-1191" y="1268" type="curve"/>
    </contour>
    <contour>
      <point x="-1268" y="1437" type="curve"/>
      <point x="-1092" y="1437" type="line"/>
      <point x="-1092" y="1466" type="line"/>
      <point x="-1154" y="1531"/>
      <point x="-1195" y="1587"/>
      <point x="-1232" y="1663" type="curve"/>
      <point x="-1507" y="1663" type="line"/>
      <point x="-1507" y="1639" type="line"/>
      <point x="-1465" y="1587"/>
      <point x="-1387" y="1520"/>
    </contour>
  </outline>
</glyph>
<glyph name="six.osf" format="2">
  <advance width="991"/>
  <note>
g905
</note>
  <outline>
    <contour>
      <point x="506" y="-20" type="curve" smooth="yes"/>
      <point x="777" y="-20"/>
      <point x="922" y="164"/>
      <point x="922" y="500" type="curve" smooth="yes"/>
      <point x="922" y="805"/>
      <point x="806" y="970"/>
      <point x="578" y="970" type="curve" smooth="yes"/>
      <point x="463" y="970"/>
      <point x="368" y="911"/>
      <point x="327" y="812" type="curve"/>
      <point x="417" y="812" type="line"/>
      <point x="418" y="910"/>
      <point x="435" y="996"/>
      <point x="444" y="1018" type="curve" smooth="yes"/>
      <point x="494" y="1145"/>
      <point x="571" y="1167"/>
      <point x="673" y="1167" type="curve" smooth="yes"/>
      <point x="732" y="1167"/>
      <point x="831" y="1156"/>
      <point x="857" y="1150" type="curve"/>
      <point x="857" y="1465" type="line"/>
      <point x="839" y="1470"/>
      <point x="734" y="1476"/>
      <point x="649" y="1476" type="curve" smooth="yes"/>
      <point x="527" y="1476"/>
      <point x="420" y="1450"/>
      <point x="332" y="1388" type="curve" smooth="yes"/>
      <point x="157" y="1264"/>
      <point x="73" y="1022"/>
      <point x="73" y="598" type="curve" smooth="yes"/>
      <point x="73" y="477"/>
      <point x="90" y="375"/>
      <point x="125" y="260" type="curve" smooth="yes"/>
      <point x="177" y="90"/>
      <point x="325" y="-20"/>
    </contour>
    <contour>
      <point x="501" y="295" type="curve" smooth="yes"/>
      <point x="498" y="295"/>
      <point x="487" y="301"/>
      <point x="478" y="347" type="curve" smooth="yes"/>
      <point x="472" y="378"/>
      <point x="468" y="438"/>
      <point x="467" y="492" type="curve" smooth="yes"/>
      <point x="466" y="533"/>
      <point x="472" y="587"/>
      <point x="480" y="617" type="curve" smooth="yes"/>
      <point x="489" y="655"/>
      <point x="500" y="666"/>
      <point x="504" y="666" type="curve" smooth="yes"/>
      <point x="512" y="666"/>
      <point x="533" y="612"/>
      <point x="535" y="495" type="curve" smooth="yes"/>
      <point x="537" y="371"/>
      <point x="518" y="295"/>
    </contour>
  </outline>
</glyph>
